<svg width="397" height="80" viewBox="0 0 397 80" fill="none" xmlns="http://www.w3.org/2000/svg">
<rect width="397" height="80" fill="white"/>
<g clip-path="url(#clip0)">
<path d="M201.039 9.17969H201.775L202.108 20.2925L199.245 19.8883V14.3083L199.847 10.3185L201.039 9.17969Z" fill="#232E2F"/>
<path d="M200.544 44.6055C200.514 45.9842 200.481 47.3004 200.447 48.5539C199.515 48.5657 197.487 48.6482 197.084 48.7133C196.558 48.7985 194.231 49.1876 194.023 49.3731C193.815 49.5585 193.133 50.0917 193.043 50.3579C192.952 50.6241 191.114 54.7363 191.246 54.955C191.333 55.1009 191.289 55.2155 191.114 55.299H190.749C190.554 55.299 190.462 55.5067 190.398 55.6357C190.334 55.7647 190.221 56.5319 190.218 56.6146C190.216 56.6973 188.712 57.1816 188.533 57.3794C188.354 57.5772 187.782 59.4716 187.738 59.5975C187.694 59.7235 187.346 59.65 187.246 59.7238C187.146 59.7976 184.765 63.2224 184.667 63.7219C184.569 64.2215 182.99 66.9345 182.99 67.2824C182.99 67.6302 182.659 67.9529 182.659 68.1533C182.659 68.2892 180.765 69.9653 180.316 71.0301C179.494 71.0231 178.956 71.0195 178.828 71.0244C177.986 71.0564 175.119 70.6041 175.641 70.5731C176.164 70.5421 179.014 69.1961 179.323 68.8298C179.631 68.4635 181.281 67.3311 180.962 67.356C180.642 67.3808 176.982 68.9201 176.982 68.8298C176.982 68.7395 173.743 70.4541 173.854 69.9214C173.964 69.3887 176.647 64.6617 176.981 64.2854C177.315 63.9091 181.281 62.1238 180.961 62.2568C180.642 62.3898 179.218 62.2568 178.579 62.5367C177.94 62.8165 174.523 64.234 174.461 63.8634C174.4 63.4927 177.266 59.7963 178.053 58.9921C178.84 58.1879 180.487 57.8849 181.281 57.9111C182.074 57.9373 182.911 57.0916 182.911 56.8626C182.911 56.6336 183.193 51.7125 183.466 51.6566C183.524 51.6447 183.558 51.3449 183.572 50.881C184.143 50.6767 185.062 50.2827 186.329 49.6988C186.329 49.3789 186.436 49.2226 186.652 49.2298C186.974 49.2408 188.704 47.7321 188.963 47.6026C189.222 47.473 189.496 46.2127 189.775 46.1428C190.053 46.073 190.476 45.5418 190.778 45.5418C191.08 45.5418 190.449 44.5539 190.778 44.5496C191.107 44.5452 191.496 43.1046 191.783 43.0615C192.069 43.0184 192.636 39.5956 192.386 41.1472C192.22 42.1816 192.821 43.0898 194.19 43.872V45.542L200.544 44.6055ZM200.834 21.3886C199.111 20.6794 198.122 20.3154 197.866 20.2965C197.605 20.2774 197.178 21.0373 196.586 22.5763V23.2703C196.226 23.1472 195.933 23.1472 195.709 23.2703C195.485 23.3933 195.597 24.1967 196.046 25.6804L197.252 26.3952C196.92 27.1901 196.698 27.5792 196.586 27.5623C196.418 27.5375 193.131 29.6381 191.783 29.5822C190.435 29.5264 189.264 31.0507 188.963 31.265C188.662 31.4792 188.708 32.8404 188.403 32.9859C188.099 33.1315 187.1 34.7125 186.651 34.933C186.352 35.0799 186.502 35.9157 187.1 37.4406C187.428 37.9137 187.428 38.2222 187.1 38.3661C186.608 38.5819 186.651 41.147 186.651 41.7682C186.651 42.3895 186.651 42.8098 185.93 42.7332C185.209 42.6566 184.84 43.8715 184.375 43.8715C183.91 43.8715 183.803 45.2096 183.387 45.2417C183.333 45.2481 183.28 45.2623 183.23 45.2838C183.218 45.2631 183.206 45.2539 183.193 45.2576C183.011 45.3137 181.473 45.0498 178.579 44.4661C177.727 44.0336 177.727 43.8665 178.579 43.9647C179.857 44.1121 182.911 41.9408 183.193 41.6394C183.475 41.338 182.911 38.0992 183.466 37.515C184.021 36.9308 185.647 35.1997 185.353 35.1997C185.06 35.1997 183.141 35.2524 182.911 35.1997C182.682 35.1469 181.052 36.9707 181.281 36.0852C181.433 35.4948 182.162 34.2516 183.466 32.3553C185.438 31.5071 186.341 31.1056 186.175 31.1509C185.926 31.2187 183.495 28.5624 183.793 28.8931C184.092 29.2238 185.647 28.9411 186.424 28.9171C186.942 28.9011 187.464 28.7024 187.99 28.3211L187.593 27.8718C186.872 27.6819 186.399 27.5542 186.175 27.4886C185.839 27.3902 185.354 27.3802 184.191 27.1317C183.029 26.8832 189.706 25.8748 189.436 25.8377C189.166 25.8007 187.544 24.7854 187.593 24.5295C187.625 24.3589 187.236 23.3296 186.424 21.4415C187.502 22.3308 188.166 22.7923 188.415 22.8259C188.789 22.876 190.729 22.3058 190.465 22.1994C190.288 22.1285 189.801 21.013 189.003 18.8531L191.878 20.9162C193.416 21.1449 193.709 21.1019 192.758 20.7873C191.33 20.3155 188.588 18.2853 189.003 17.9597C189.418 17.6341 193.161 17.9597 193.144 17.1013C193.132 16.529 193.695 14.6756 194.83 11.5412C195.113 13.3768 195.286 14.1232 195.349 13.7804C195.412 13.4375 196.044 12.282 197.243 10.3139C197.243 12.0141 197.227 12.7108 197.193 12.404C197.16 12.0972 198.57 10.6913 201.423 8.18628C201.033 9.26346 200.699 9.97259 200.422 10.3137C200.146 10.6539 200.283 14.3455 200.834 21.3886Z" fill="#232E2F"/>
<path d="M218.287 50.87C218.303 51.225 218.335 51.4464 218.385 51.4567C218.658 51.5125 218.94 56.4321 218.94 56.6612C218.94 56.8903 219.777 57.7352 220.57 57.7093C221.364 57.6834 223.011 57.9861 223.798 58.7901C224.585 59.594 227.451 63.2893 227.39 63.6598C227.328 64.0302 223.911 62.6134 223.272 62.3335C222.634 62.0536 221.209 62.1867 220.89 62.0537C220.57 61.9207 224.536 63.7055 224.87 64.0817C225.204 64.4579 227.887 69.1834 227.997 69.716C228.108 70.2486 224.87 68.5348 224.87 68.625C224.87 68.7153 221.209 67.1765 220.89 67.1516C220.57 67.1267 222.22 68.2589 222.529 68.625C222.838 68.9912 225.688 70.3368 226.21 70.3678C226.733 70.3988 223.865 70.8509 223.024 70.8188C222.898 70.814 222.489 70.8428 221.885 70.8925C221.355 69.8268 219.596 68.2658 219.596 68.1349C219.596 67.9345 219.265 67.6119 219.265 67.2642C219.265 66.9166 217.686 64.2044 217.588 63.7049C217.49 63.2055 215.109 59.7817 215.009 59.708C214.908 59.6342 214.56 59.708 214.517 59.5817C214.473 59.4554 213.901 57.5619 213.722 57.3643C213.543 57.1666 212.039 56.6824 212.037 56.5997C212.034 56.517 211.921 55.7501 211.857 55.6211C211.793 55.4921 211.701 55.2845 211.506 55.2845H211.141C210.965 55.201 210.922 55.0864 211.009 54.9406C211.141 54.722 209.303 50.611 209.212 50.3449C209.122 50.0787 208.439 49.5458 208.231 49.3604C208.024 49.1749 205.697 48.786 205.17 48.7009C204.69 48.6231 201.892 48.5208 201.409 48.5432C201.375 47.2902 201.342 45.974 201.311 44.5948L207.662 45.53V43.8606C209.03 43.0787 209.631 42.1707 209.465 41.1367C209.216 39.5856 209.782 43.0073 210.069 43.0503C210.355 43.0934 210.744 44.5337 211.073 44.538C211.403 44.5424 210.771 45.53 211.073 45.53C211.376 45.53 211.798 46.0609 212.077 46.1308C212.356 46.2006 212.63 47.4605 212.889 47.59C213.148 47.7196 214.877 49.2278 215.2 49.2166C215.415 49.2093 215.523 49.3656 215.523 49.6854C216.794 50.2717 217.716 50.6666 218.287 50.87ZM218.568 45.2533C218.534 45.2417 218.499 45.234 218.464 45.2304C218.047 45.1984 217.941 43.8606 217.476 43.8606C217.011 43.8606 216.642 42.6457 215.921 42.7223C215.199 42.7988 215.2 42.3785 215.2 41.7576C215.2 41.1367 215.243 38.5727 214.751 38.3567C214.423 38.2128 214.423 37.9045 214.751 37.4317C215.349 35.9074 215.499 35.0717 215.2 34.9248C214.751 34.7045 213.752 33.1239 213.448 32.9784C213.143 32.8329 213.189 31.4723 212.888 31.258C212.587 31.0438 211.416 29.5197 210.068 29.5756C208.72 29.6315 205.433 27.5313 205.265 27.5561C205.153 27.5726 204.931 27.1836 204.599 26.3889L205.805 25.675C206.254 24.1918 206.366 23.3887 206.142 23.2657C205.917 23.1426 205.625 23.1426 205.265 23.2657V22.5718C204.672 21.0333 204.246 20.2736 203.985 20.2928C203.728 20.3116 202.738 20.676 201.013 21.3858C201.013 21.3411 201.013 21.2963 201.013 21.2514C201.567 14.1759 201.706 10.4677 201.429 10.1267C201.151 9.78571 200.818 9.07681 200.427 8C203.281 10.504 204.691 11.9094 204.658 12.2162C204.624 12.523 204.608 11.8265 204.608 10.1267C205.807 12.0943 206.439 13.2494 206.502 13.5922C206.565 13.9349 206.738 13.1887 207.021 11.3537C208.157 14.4871 208.719 16.3399 208.707 16.912C208.69 17.7702 212.433 17.4447 212.848 17.7702C213.263 18.0958 210.521 20.1253 209.094 20.5969C208.142 20.9115 208.435 20.9544 209.973 20.7259L212.848 18.6633C212.05 20.8228 211.563 21.938 211.387 22.0089C211.123 22.1152 213.062 22.6856 213.436 22.6352C213.685 22.6017 214.349 22.1405 215.427 21.2514C214.615 23.1387 214.226 24.1677 214.258 24.3385C214.308 24.5943 212.685 25.6092 212.415 25.6462C212.145 25.6832 218.822 26.6915 217.66 26.9399C216.498 27.1882 216.012 27.1982 215.676 27.2966C215.452 27.3622 214.979 27.4899 214.258 27.6797L213.861 28.1289C214.387 28.5099 214.91 28.7084 215.427 28.7244C216.204 28.7484 217.759 29.031 218.058 28.7005C218.356 28.37 215.925 31.0253 215.676 30.9575C215.51 30.9123 216.413 31.3138 218.385 32.1619C219.689 34.0575 220.418 35.3004 220.57 35.8906C220.799 36.7758 219.169 34.9526 218.94 35.0054C218.71 35.0582 216.791 35.0054 216.498 35.0054C216.204 35.0054 217.83 36.736 218.385 37.32C218.94 37.904 218.376 41.1415 218.658 41.4431C218.94 41.7448 221.994 43.915 223.272 43.7677C224.124 43.6695 224.124 43.8366 223.272 44.269C220.378 44.8525 218.84 45.1163 218.658 45.0602C218.627 45.051 218.597 45.121 218.568 45.2533Z" fill="#232E2F"/>
<path d="M193.968 46.7901C193.062 46.8232 192.597 46.8853 192.574 46.9764C192.551 47.0674 192.551 47.2329 192.574 47.4727C192.186 48.1685 192.007 48.557 192.035 48.6383C192.078 48.7603 190.197 49.2502 190.053 49.3771C189.908 49.504 188.057 53.8731 187.938 54.023C187.818 54.1729 187.069 54.3878 186.527 54.3502C185.985 54.3126 184.909 54.4549 184.726 54.3129C184.544 54.171 180.893 52.5295 180.864 52.3457C180.835 52.1618 179.961 51.5244 179.782 51.3945C179.603 51.2646 178.325 51.0676 178.137 51.129C177.949 51.1904 175.061 50.6938 174.887 50.2723C174.712 49.8508 175.387 48.1823 175.434 47.9193C175.481 47.6564 175.324 47.1616 175.106 46.9757C174.887 46.7898 174.668 45.2001 174.887 44.8949C175.106 44.5897 176.791 42.8731 177.159 42.7721C177.526 42.671 179.518 41.996 179.646 41.9379C179.775 41.8797 180.101 41.6611 179.941 41.6359C179.782 41.6108 176.153 41.9379 175.969 41.9379C175.785 41.9379 176.924 40.4754 178.433 40.2581C179.941 40.0408 181.479 39.8608 181.744 39.867C181.921 39.8707 182.074 39.8689 182.204 39.8614C180.122 39.0205 178.973 38.5987 178.757 38.596C178.433 38.592 175.844 38.6041 175.304 38.6C174.764 38.596 173.513 37.4773 173.477 37.156C173.44 36.8348 174.411 34.2207 174.758 34.1388C175.105 34.0569 170.824 36.1449 170.675 36.285C170.526 36.425 168.453 39.4636 168.547 39.8609C168.641 40.2583 168.436 44.9344 168.436 45.3676C168.436 45.8007 168.719 46.2408 168.829 46.7902C168.939 47.3397 172.524 52.6103 173.477 52.6814C174.112 52.7289 175.456 52.7527 177.509 52.7527C178.789 53.411 179.455 53.7527 179.505 53.7777C179.581 53.8153 184.082 57.3184 184.404 57.2937C184.726 57.269 187.459 56.4549 187.782 56.256C188.104 56.0571 191.519 53.9367 191.777 53.7777C192.035 53.6186 193.739 52.4447 194.393 51.6391C194.828 51.102 194.687 49.4857 193.968 46.7901Z" fill="#F30A2E"/>
<path d="M189.227 51.9583C187.512 51.736 186.617 51.6619 186.542 51.7359C186.429 51.8471 184.458 53.3481 184.361 53.5545C184.265 53.7609 184.038 53.9867 183.931 54.2001C183.825 54.4136 180.829 57.9692 179.11 58.3155C177.391 58.6619 176.395 58.5014 176.233 58.477C176.07 58.4526 171.755 56.6075 171.741 56.4216C171.727 56.2357 169.73 54.9498 169.682 54.7491C169.633 54.5485 167.373 48.5077 168.17 47.1202C168.702 46.1952 168.93 45.7838 168.855 45.8858L174.218 52.9046V54.7489C174.883 55.705 175.511 56.0703 176.103 55.8446C176.695 55.619 177.914 54.9948 179.761 53.9719L184.06 51.6048H185.62C187.579 50.3752 188.628 49.7376 188.769 49.6921C188.979 49.6238 190.74 49.6921 190.811 49.6921C190.882 49.6921 191.01 51.7133 190.74 51.9581C190.56 52.1214 190.056 52.1215 189.227 51.9583Z" fill="#F30A2E"/>
<path d="M200.863 48.9375V44.1943C199.091 44.3425 197.867 44.48 197.191 44.6066C194.838 45.0474 193.626 45.6106 193.56 45.8922C193.467 46.295 193.531 46.4191 193.754 46.2644V46.7832C193.754 47.1611 193.631 48.5972 193.754 48.9375C193.838 49.1719 193.903 49.4128 193.948 49.6576C195.414 49.3671 196.547 49.1882 197.348 49.121C198.149 49.0537 199.32 48.9925 200.863 48.9375Z" fill="#F30A2E"/>
<path d="M200.739 48.9375V44.1943C202.511 44.3425 203.736 44.48 204.411 44.6066C206.764 45.0474 207.976 45.6106 208.042 45.8922C208.135 46.295 208.071 46.4191 207.848 46.2644V46.7832C207.848 47.1611 207.971 48.5972 207.848 48.9375C207.764 49.1719 207.699 49.4128 207.654 49.6576C206.188 49.3671 205.055 49.1882 204.254 49.121C203.453 49.0537 202.282 48.9925 200.739 48.9375Z" fill="#F30A2E"/>
<path d="M201.016 21.3849L200.929 21.4137L200.834 21.3836L200.565 19.9744L201.4 20.0475L201.016 21.3849Z" fill="#232E2F"/>
</g>
<defs>
<clipPath id="clip0">
<rect x="168" y="8" width="60" height="63.0303" fill="white"/>
</clipPath>
</defs>
</svg>
