<svg width="397" height="80" viewBox="0 0 397 80" fill="none" xmlns="http://www.w3.org/2000/svg">
<rect width="397" height="80" fill="white"/>
<path d="M113.723 34.976C115.088 34.976 116.144 35.264 116.891 35.84C117.637 36.4053 118.011 37.2533 118.011 38.384C118.011 39.5893 117.621 40.4853 116.843 41.072C116.064 41.6587 115.029 41.952 113.739 41.952H112.347V46H110.827V34.976H113.723ZM113.675 40.752C114.56 40.752 115.232 40.5813 115.691 40.24C116.16 39.8987 116.395 39.2853 116.395 38.4C116.395 37.6107 116.16 37.04 115.691 36.688C115.232 36.336 114.571 36.16 113.707 36.16H112.347V40.752H113.675ZM125.927 41.536C125.927 41.7813 125.916 42.032 125.895 42.288H120.519C120.583 43.216 120.818 43.8987 121.223 44.336C121.628 44.7733 122.151 44.992 122.791 44.992C123.196 44.992 123.57 44.9333 123.911 44.816C124.252 44.6987 124.61 44.512 124.983 44.256L125.623 45.136C124.727 45.84 123.746 46.192 122.679 46.192C121.506 46.192 120.588 45.808 119.927 45.04C119.276 44.272 118.951 43.216 118.951 41.872C118.951 40.9973 119.09 40.224 119.367 39.552C119.655 38.8693 120.06 38.336 120.583 37.952C121.116 37.568 121.74 37.376 122.455 37.376C123.575 37.376 124.434 37.744 125.031 38.48C125.628 39.216 125.927 40.2347 125.927 41.536ZM124.471 41.104C124.471 40.272 124.306 39.6373 123.975 39.2C123.644 38.7627 123.148 38.544 122.487 38.544C121.282 38.544 120.626 39.4293 120.519 41.2H124.471V41.104ZM131.942 37.376C132.24 37.376 132.518 37.408 132.774 37.472L132.502 38.912C132.246 38.848 132 38.816 131.766 38.816C131.243 38.816 130.822 39.008 130.502 39.392C130.182 39.776 129.931 40.3733 129.75 41.184V46H128.278V37.568H129.542L129.686 39.28C129.91 38.6507 130.214 38.176 130.598 37.856C130.982 37.536 131.43 37.376 131.942 37.376ZM136.503 37.376C137.079 37.376 137.597 37.456 138.055 37.616C138.514 37.776 138.951 38.016 139.367 38.336L138.743 39.264C138.359 39.0187 137.991 38.8373 137.639 38.72C137.298 38.6027 136.935 38.544 136.551 38.544C136.071 38.544 135.693 38.6453 135.415 38.848C135.138 39.04 134.999 39.3067 134.999 39.648C134.999 39.9893 135.127 40.256 135.383 40.448C135.65 40.64 136.125 40.8267 136.807 41.008C137.746 41.2427 138.445 41.5627 138.903 41.968C139.373 42.3733 139.607 42.928 139.607 43.632C139.607 44.464 139.282 45.0987 138.631 45.536C137.991 45.9733 137.207 46.192 136.279 46.192C134.999 46.192 133.938 45.824 133.095 45.088L133.879 44.192C134.594 44.736 135.383 45.008 136.247 45.008C136.802 45.008 137.239 44.896 137.559 44.672C137.89 44.4373 138.055 44.1227 138.055 43.728C138.055 43.44 137.997 43.2107 137.879 43.04C137.762 42.8587 137.559 42.704 137.271 42.576C136.983 42.4373 136.562 42.2933 136.007 42.144C135.111 41.9093 134.461 41.5947 134.055 41.2C133.661 40.8053 133.463 40.304 133.463 39.696C133.463 39.2587 133.591 38.864 133.847 38.512C134.114 38.1493 134.477 37.872 134.935 37.68C135.405 37.4773 135.927 37.376 136.503 37.376ZM144.852 37.376C146.036 37.376 146.953 37.7707 147.604 38.56C148.265 39.3493 148.596 40.4213 148.596 41.776C148.596 42.6507 148.447 43.424 148.148 44.096C147.849 44.7573 147.417 45.2747 146.852 45.648C146.287 46.0107 145.615 46.192 144.836 46.192C143.652 46.192 142.729 45.7973 142.068 45.008C141.407 44.2187 141.076 43.1467 141.076 41.792C141.076 40.9173 141.225 40.1493 141.524 39.488C141.823 38.816 142.255 38.2987 142.82 37.936C143.385 37.5627 144.063 37.376 144.852 37.376ZM144.852 38.56C143.391 38.56 142.66 39.6373 142.66 41.792C142.66 43.936 143.385 45.008 144.836 45.008C146.287 45.008 147.012 43.9307 147.012 41.776C147.012 39.632 146.292 38.56 144.852 38.56ZM154.996 37.376C155.764 37.376 156.361 37.6053 156.788 38.064C157.225 38.5227 157.444 39.152 157.444 39.952V46H155.972V40.16C155.972 39.5627 155.86 39.1413 155.636 38.896C155.412 38.6507 155.081 38.528 154.644 38.528C154.196 38.528 153.801 38.656 153.46 38.912C153.118 39.168 152.798 39.536 152.5 40.016V46H151.028V37.568H152.292L152.42 38.816C152.718 38.368 153.086 38.016 153.524 37.76C153.972 37.504 154.462 37.376 154.996 37.376ZM166.083 44.032C166.083 44.3733 166.141 44.6293 166.259 44.8C166.376 44.96 166.552 45.0827 166.787 45.168L166.451 46.192C166.013 46.1387 165.661 46.016 165.395 45.824C165.128 45.632 164.931 45.3333 164.803 44.928C164.237 45.7707 163.4 46.192 162.291 46.192C161.459 46.192 160.803 45.9573 160.323 45.488C159.843 45.0187 159.603 44.4053 159.603 43.648C159.603 42.752 159.923 42.064 160.563 41.584C161.213 41.104 162.131 40.864 163.315 40.864H164.611V40.24C164.611 39.6427 164.467 39.216 164.179 38.96C163.891 38.704 163.448 38.576 162.851 38.576C162.232 38.576 161.475 38.7253 160.579 39.024L160.211 37.952C161.256 37.568 162.227 37.376 163.123 37.376C164.115 37.376 164.856 37.6213 165.347 38.112C165.837 38.592 166.083 39.28 166.083 40.176V44.032ZM162.627 45.088C163.469 45.088 164.131 44.6507 164.611 43.776V41.84H163.507C161.949 41.84 161.171 42.416 161.171 43.568C161.171 44.0693 161.293 44.448 161.539 44.704C161.784 44.96 162.147 45.088 162.627 45.088ZM170.63 46.192C170.086 46.192 169.654 46.032 169.334 45.712C169.024 45.3813 168.87 44.9227 168.87 44.336V34.176L170.342 34V44.304C170.342 44.5387 170.379 44.7093 170.454 44.816C170.539 44.9227 170.678 44.976 170.87 44.976C171.072 44.976 171.254 44.944 171.414 44.88L171.798 45.904C171.446 46.096 171.056 46.192 170.63 46.192ZM182.016 34.784C182.709 34.784 183.306 34.8853 183.808 35.088C184.32 35.28 184.826 35.584 185.328 36L184.432 36.928C184.037 36.608 183.658 36.3787 183.296 36.24C182.933 36.1013 182.506 36.032 182.016 36.032C181.45 36.032 180.928 36.1867 180.448 36.496C179.978 36.7947 179.594 37.28 179.296 37.952C178.997 38.6133 178.848 39.456 178.848 40.48C178.848 42.0267 179.098 43.1573 179.6 43.872C180.112 44.5867 180.864 44.944 181.856 44.944C182.666 44.944 183.365 44.7787 183.952 44.448V41.12H182L181.824 39.888H185.456V45.216C184.314 45.8667 183.114 46.192 181.856 46.192C180.405 46.192 179.269 45.7067 178.448 44.736C177.637 43.7653 177.232 42.3467 177.232 40.48C177.232 39.2853 177.445 38.2613 177.872 37.408C178.309 36.544 178.89 35.8933 179.616 35.456C180.352 35.008 181.152 34.784 182.016 34.784ZM189.437 37.568V46H187.965V37.568H189.437ZM188.685 33.52C188.995 33.52 189.245 33.616 189.437 33.808C189.629 34 189.725 34.24 189.725 34.528C189.725 34.816 189.629 35.056 189.437 35.248C189.245 35.4293 188.995 35.52 188.685 35.52C188.387 35.52 188.141 35.4293 187.949 35.248C187.757 35.056 187.661 34.816 187.661 34.528C187.661 34.24 187.757 34 187.949 33.808C188.141 33.616 188.387 33.52 188.685 33.52ZM196.737 45.616C196.182 46 195.553 46.192 194.849 46.192C194.134 46.192 193.574 45.9893 193.169 45.584C192.774 45.168 192.577 44.5707 192.577 43.792V38.704H191.105V37.568H192.577V35.664L194.049 35.488V37.568H196.049L195.889 38.704H194.049V43.728C194.049 44.1653 194.124 44.4853 194.273 44.688C194.433 44.88 194.694 44.976 195.057 44.976C195.388 44.976 195.761 44.864 196.177 44.64L196.737 45.616ZM204.502 46V40.832H199.862V46H198.342V34.976H199.862V39.584H204.502V34.976H206.022V46H204.502ZM215.409 46H214.145L214.033 44.688C213.713 45.2107 213.345 45.5947 212.929 45.84C212.513 46.0747 212.007 46.192 211.409 46.192C210.673 46.192 210.097 45.968 209.681 45.52C209.265 45.072 209.057 44.4373 209.057 43.616V37.568H210.529V43.456C210.529 44.032 210.631 44.4427 210.833 44.688C211.036 44.9227 211.367 45.04 211.825 45.04C212.647 45.04 213.351 44.5547 213.937 43.584V37.568H215.409V46ZM222.306 37.376C223.266 37.376 224.028 37.7653 224.594 38.544C225.159 39.312 225.442 40.3893 225.442 41.776C225.442 42.6507 225.308 43.424 225.042 44.096C224.775 44.7573 224.391 45.2747 223.89 45.648C223.388 46.0107 222.802 46.192 222.13 46.192C221.244 46.192 220.498 45.8187 219.89 45.072L219.746 46H218.45V34.176L219.922 34V38.624C220.53 37.792 221.324 37.376 222.306 37.376ZM221.778 45.024C222.428 45.024 222.935 44.7627 223.298 44.24C223.671 43.7067 223.858 42.8853 223.858 41.776C223.858 40.6347 223.687 39.8133 223.346 39.312C223.004 38.8 222.519 38.544 221.89 38.544C221.143 38.544 220.487 38.9813 219.922 39.856V43.888C220.146 44.24 220.418 44.5173 220.738 44.72C221.068 44.9227 221.415 45.024 221.778 45.024ZM235.16 34.976C236.525 34.976 237.581 35.264 238.328 35.84C239.075 36.4053 239.448 37.2533 239.448 38.384C239.448 39.5893 239.059 40.4853 238.28 41.072C237.501 41.6587 236.467 41.952 235.176 41.952H233.784V46H232.264V34.976H235.16ZM235.112 40.752C235.997 40.752 236.669 40.5813 237.128 40.24C237.597 39.8987 237.832 39.2853 237.832 38.4C237.832 37.6107 237.597 37.04 237.128 36.688C236.669 36.336 236.008 36.16 235.144 36.16H233.784V40.752H235.112ZM244.832 37.376C245.131 37.376 245.408 37.408 245.664 37.472L245.392 38.912C245.136 38.848 244.891 38.816 244.656 38.816C244.134 38.816 243.712 39.008 243.392 39.392C243.072 39.776 242.822 40.3733 242.64 41.184V46H241.168V37.568H242.432L242.576 39.28C242.8 38.6507 243.104 38.176 243.488 37.856C243.872 37.536 244.32 37.376 244.832 37.376ZM250.024 37.376C251.208 37.376 252.125 37.7707 252.776 38.56C253.437 39.3493 253.768 40.4213 253.768 41.776C253.768 42.6507 253.619 43.424 253.32 44.096C253.021 44.7573 252.589 45.2747 252.024 45.648C251.459 46.0107 250.787 46.192 250.008 46.192C248.824 46.192 247.901 45.7973 247.24 45.008C246.579 44.2187 246.248 43.1467 246.248 41.792C246.248 40.9173 246.397 40.1493 246.696 39.488C246.995 38.816 247.427 38.2987 247.992 37.936C248.557 37.5627 249.235 37.376 250.024 37.376ZM250.024 38.56C248.563 38.56 247.832 39.6373 247.832 41.792C247.832 43.936 248.557 45.008 250.008 45.008C251.459 45.008 252.184 43.9307 252.184 41.776C252.184 39.632 251.464 38.56 250.024 38.56ZM257.64 45.488C257.64 46.2667 257.544 46.8907 257.352 47.36C257.16 47.8293 256.877 48.208 256.504 48.496C256.141 48.7947 255.629 49.0933 254.968 49.392L254.536 48.32C254.952 48.128 255.272 47.936 255.496 47.744C255.72 47.5627 255.885 47.3013 255.992 46.96C256.109 46.6293 256.168 46.1707 256.168 45.584V37.568H257.64V45.488ZM256.904 33.52C257.213 33.52 257.464 33.616 257.656 33.808C257.848 34 257.944 34.24 257.944 34.528C257.944 34.816 257.848 35.056 257.656 35.248C257.464 35.4293 257.213 35.52 256.904 35.52C256.605 35.52 256.36 35.4293 256.168 35.248C255.976 35.056 255.88 34.816 255.88 34.528C255.88 34.24 255.976 34 256.168 33.808C256.36 33.616 256.605 33.52 256.904 33.52ZM267.052 41.536C267.052 41.7813 267.041 42.032 267.02 42.288H261.644C261.708 43.216 261.943 43.8987 262.348 44.336C262.753 44.7733 263.276 44.992 263.916 44.992C264.321 44.992 264.695 44.9333 265.036 44.816C265.377 44.6987 265.735 44.512 266.108 44.256L266.748 45.136C265.852 45.84 264.871 46.192 263.804 46.192C262.631 46.192 261.713 45.808 261.052 45.04C260.401 44.272 260.076 43.216 260.076 41.872C260.076 40.9973 260.215 40.224 260.492 39.552C260.78 38.8693 261.185 38.336 261.708 37.952C262.241 37.568 262.865 37.376 263.58 37.376C264.7 37.376 265.559 37.744 266.156 38.48C266.753 39.216 267.052 40.2347 267.052 41.536ZM265.596 41.104C265.596 40.272 265.431 39.6373 265.1 39.2C264.769 38.7627 264.273 38.544 263.612 38.544C262.407 38.544 261.751 39.4293 261.644 41.2H265.596V41.104ZM272.475 37.376C272.976 37.376 273.435 37.4507 273.851 37.6C274.267 37.7387 274.667 37.968 275.051 38.288L274.347 39.216C274.048 39.0027 273.755 38.848 273.467 38.752C273.189 38.6453 272.88 38.592 272.539 38.592C271.856 38.592 271.323 38.864 270.939 39.408C270.565 39.952 270.379 40.7573 270.379 41.824C270.379 42.8907 270.565 43.68 270.939 44.192C271.312 44.6933 271.845 44.944 272.539 44.944C272.869 44.944 273.173 44.896 273.451 44.8C273.728 44.6933 274.037 44.528 274.379 44.304L275.051 45.264C274.283 45.8827 273.424 46.192 272.475 46.192C271.333 46.192 270.432 45.808 269.771 45.04C269.12 44.272 268.795 43.2107 268.795 41.856C268.795 40.96 268.944 40.176 269.243 39.504C269.541 38.832 269.963 38.3093 270.507 37.936C271.061 37.5627 271.717 37.376 272.475 37.376ZM281.299 45.616C280.745 46 280.115 46.192 279.411 46.192C278.697 46.192 278.137 45.9893 277.731 45.584C277.337 45.168 277.139 44.5707 277.139 43.792V38.704H275.667V37.568H277.139V35.664L278.611 35.488V37.568H280.611L280.451 38.704H278.611V43.728C278.611 44.1653 278.686 44.4853 278.835 44.688C278.995 44.88 279.257 44.976 279.619 44.976C279.95 44.976 280.323 44.864 280.739 44.64L281.299 45.616ZM285.113 37.376C285.689 37.376 286.206 37.456 286.665 37.616C287.123 37.776 287.561 38.016 287.977 38.336L287.353 39.264C286.969 39.0187 286.601 38.8373 286.249 38.72C285.907 38.6027 285.545 38.544 285.161 38.544C284.681 38.544 284.302 38.6453 284.025 38.848C283.747 39.04 283.609 39.3067 283.609 39.648C283.609 39.9893 283.737 40.256 283.993 40.448C284.259 40.64 284.734 40.8267 285.417 41.008C286.355 41.2427 287.054 41.5627 287.513 41.968C287.982 42.3733 288.217 42.928 288.217 43.632C288.217 44.464 287.891 45.0987 287.241 45.536C286.601 45.9733 285.817 46.192 284.889 46.192C283.609 46.192 282.547 45.824 281.705 45.088L282.489 44.192C283.203 44.736 283.993 45.008 284.857 45.008C285.411 45.008 285.849 44.896 286.169 44.672C286.499 44.4373 286.665 44.1227 286.665 43.728C286.665 43.44 286.606 43.2107 286.489 43.04C286.371 42.8587 286.169 42.704 285.881 42.576C285.593 42.4373 285.171 42.2933 284.617 42.144C283.721 41.9093 283.07 41.5947 282.665 41.2C282.27 40.8053 282.073 40.304 282.073 39.696C282.073 39.2587 282.201 38.864 282.457 38.512C282.723 38.1493 283.086 37.872 283.545 37.68C284.014 37.4773 284.537 37.376 285.113 37.376Z" fill="#3C4753"/>
</svg>
