<svg width="397" height="80" viewBox="0 0 397 80" fill="none" xmlns="http://www.w3.org/2000/svg">
<rect width="397" height="80" fill="white"/>
<path d="M77.6825 34.382C79.0025 34.382 80.1665 34.646 81.1745 35.174C82.1945 35.702 82.9865 36.446 83.5505 37.406C84.1145 38.354 84.3965 39.446 84.3965 40.682C84.3965 41.918 84.1085 43.016 83.5325 43.976C82.9685 44.936 82.1645 45.68 81.1205 46.208C80.0885 46.736 78.9005 47 77.5565 47H72.2465V34.382H77.6825ZM77.7725 44.336C78.4085 44.336 78.9725 44.186 79.4645 43.886C79.9565 43.586 80.3405 43.16 80.6165 42.608C80.8925 42.056 81.0305 41.426 81.0305 40.718C81.0305 39.998 80.8805 39.362 80.5805 38.81C80.2925 38.258 79.8905 37.832 79.3745 37.532C78.8585 37.22 78.2705 37.064 77.6105 37.064H75.5405V44.336H77.7725ZM90.3117 37.154C91.8957 37.154 93.1137 37.622 93.9657 38.558C94.8177 39.494 95.2437 40.778 95.2437 42.41C95.2437 42.662 95.2377 42.854 95.2257 42.986H88.4577C88.6137 43.538 88.8837 43.964 89.2677 44.264C89.6517 44.552 90.1197 44.696 90.6717 44.696C91.0917 44.696 91.4937 44.612 91.8777 44.444C92.2737 44.276 92.6337 44.03 92.9577 43.706L94.6317 45.38C94.1277 45.944 93.5157 46.376 92.7957 46.676C92.0877 46.964 91.2837 47.108 90.3837 47.108C89.3397 47.108 88.4277 46.904 87.6477 46.496C86.8677 46.088 86.2677 45.512 85.8477 44.768C85.4397 44.024 85.2357 43.16 85.2357 42.176C85.2357 41.18 85.4457 40.304 85.8657 39.548C86.2857 38.78 86.8797 38.192 87.6477 37.784C88.4157 37.364 89.3037 37.154 90.3117 37.154ZM92.1297 41.276C92.1297 40.712 91.9617 40.262 91.6257 39.926C91.3017 39.578 90.8697 39.404 90.3297 39.404C89.8257 39.404 89.3997 39.572 89.0517 39.908C88.7157 40.244 88.4937 40.7 88.3857 41.276H92.1297ZM103.155 40.808C102.699 40.136 102.063 39.8 101.247 39.8C100.671 39.8 100.203 40.022 99.8434 40.466C99.4834 40.898 99.3034 41.462 99.3034 42.158C99.3034 42.866 99.4834 43.436 99.8434 43.868C100.203 44.3 100.671 44.516 101.247 44.516C102.135 44.516 102.771 44.15 103.155 43.418L105.513 44.768C105.129 45.512 104.553 46.088 103.785 46.496C103.017 46.904 102.117 47.108 101.085 47.108C100.089 47.108 99.2134 46.904 98.4574 46.496C97.7014 46.088 97.1134 45.512 96.6934 44.768C96.2854 44.024 96.0814 43.16 96.0814 42.176C96.0814 41.18 96.2914 40.304 96.7114 39.548C97.1314 38.78 97.7194 38.192 98.4754 37.784C99.2434 37.364 100.125 37.154 101.121 37.154C102.093 37.154 102.957 37.358 103.713 37.766C104.469 38.162 105.057 38.726 105.477 39.458L103.155 40.808ZM111.235 37.154C112.291 37.154 113.221 37.364 114.025 37.784C114.829 38.192 115.453 38.774 115.897 39.53C116.341 40.274 116.563 41.138 116.563 42.122C116.563 43.118 116.341 43.994 115.897 44.75C115.453 45.494 114.829 46.076 114.025 46.496C113.221 46.904 112.291 47.108 111.235 47.108C110.179 47.108 109.249 46.904 108.445 46.496C107.641 46.076 107.017 45.494 106.573 44.75C106.141 43.994 105.925 43.118 105.925 42.122C105.925 41.138 106.141 40.274 106.573 39.53C107.017 38.774 107.641 38.192 108.445 37.784C109.249 37.364 110.179 37.154 111.235 37.154ZM111.235 39.746C110.611 39.746 110.107 39.968 109.723 40.412C109.339 40.856 109.147 41.438 109.147 42.158C109.147 42.89 109.339 43.478 109.723 43.922C110.107 44.366 110.611 44.588 111.235 44.588C111.871 44.588 112.381 44.366 112.765 43.922C113.149 43.478 113.341 42.89 113.341 42.158C113.341 41.438 113.143 40.856 112.747 40.412C112.363 39.968 111.859 39.746 111.235 39.746ZM121.4 38.882C121.736 38.318 122.168 37.886 122.696 37.586C123.236 37.286 123.848 37.136 124.532 37.136V40.07C124.424 40.058 124.262 40.052 124.046 40.052C123.29 40.052 122.678 40.232 122.21 40.592C121.742 40.94 121.472 41.42 121.4 42.032V47H118.196V37.262H121.4V38.882ZM130.058 37.136C131.402 37.136 132.446 37.448 133.19 38.072C133.934 38.684 134.312 39.548 134.324 40.664V47H131.174V45.902C130.526 46.73 129.548 47.144 128.24 47.144C127.208 47.144 126.392 46.868 125.792 46.316C125.204 45.752 124.91 45.014 124.91 44.102C124.91 43.178 125.228 42.458 125.864 41.942C126.512 41.426 127.436 41.162 128.636 41.15H131.174V41.042C131.174 40.574 131.012 40.214 130.688 39.962C130.376 39.71 129.92 39.584 129.32 39.584C128.912 39.584 128.45 39.65 127.934 39.782C127.43 39.914 126.92 40.106 126.404 40.358L125.522 38.198C126.314 37.838 127.07 37.574 127.79 37.406C128.522 37.226 129.278 37.136 130.058 37.136ZM129.23 44.966C129.71 44.966 130.13 44.852 130.49 44.624C130.85 44.384 131.078 44.078 131.174 43.706V42.86H129.266C128.366 42.86 127.916 43.196 127.916 43.868C127.916 44.204 128.03 44.474 128.258 44.678C128.498 44.87 128.822 44.966 129.23 44.966ZM142.813 46.496C142.453 46.7 142.039 46.862 141.571 46.982C141.103 47.09 140.629 47.144 140.149 47.144C139.189 47.144 138.409 46.868 137.809 46.316C137.221 45.764 136.927 45.002 136.927 44.03V39.854H135.577V37.73H136.927V35.03H140.113V37.73H142.633V39.854H140.113V43.526C140.113 44.21 140.395 44.552 140.959 44.552C141.307 44.552 141.721 44.444 142.201 44.228L142.813 46.496ZM144.334 37.262H147.52V47H144.334V37.262ZM145.9 32.78C146.392 32.78 146.794 32.942 147.106 33.266C147.43 33.578 147.592 33.986 147.592 34.49C147.592 34.982 147.43 35.39 147.106 35.714C146.794 36.038 146.392 36.2 145.9 36.2C145.408 36.2 145 36.038 144.676 35.714C144.364 35.39 144.208 34.982 144.208 34.49C144.208 33.986 144.364 33.578 144.676 33.266C145 32.942 145.408 32.78 145.9 32.78ZM148.663 37.262H151.957L153.991 44.03L156.043 37.262H159.247L155.593 47H152.299L148.663 37.262ZM164.316 37.154C165.9 37.154 167.118 37.622 167.97 38.558C168.822 39.494 169.248 40.778 169.248 42.41C169.248 42.662 169.242 42.854 169.23 42.986H162.462C162.618 43.538 162.888 43.964 163.272 44.264C163.656 44.552 164.124 44.696 164.676 44.696C165.096 44.696 165.498 44.612 165.882 44.444C166.278 44.276 166.638 44.03 166.962 43.706L168.636 45.38C168.132 45.944 167.52 46.376 166.8 46.676C166.092 46.964 165.288 47.108 164.388 47.108C163.344 47.108 162.432 46.904 161.652 46.496C160.872 46.088 160.272 45.512 159.852 44.768C159.444 44.024 159.24 43.16 159.24 42.176C159.24 41.18 159.45 40.304 159.87 39.548C160.29 38.78 160.884 38.192 161.652 37.784C162.42 37.364 163.308 37.154 164.316 37.154ZM166.134 41.276C166.134 40.712 165.966 40.262 165.63 39.926C165.306 39.578 164.874 39.404 164.334 39.404C163.83 39.404 163.404 39.572 163.056 39.908C162.72 40.244 162.498 40.7 162.39 41.276H166.134ZM180.412 34.382C182.02 34.382 183.268 34.772 184.156 35.552C185.044 36.32 185.488 37.406 185.488 38.81C185.488 40.298 185.044 41.456 184.156 42.284C183.268 43.1 182.02 43.508 180.412 43.508H178.162V47H174.868V34.382H180.412ZM180.25 40.88C180.922 40.88 181.438 40.712 181.798 40.376C182.17 40.04 182.356 39.554 182.356 38.918C182.356 38.306 182.17 37.838 181.798 37.514C181.438 37.178 180.922 37.01 180.25 37.01H178.162V40.88H180.25ZM191.494 37.136C192.838 37.136 193.882 37.448 194.626 38.072C195.37 38.684 195.748 39.548 195.76 40.664V47H192.61V45.902C191.962 46.73 190.984 47.144 189.676 47.144C188.644 47.144 187.828 46.868 187.228 46.316C186.64 45.752 186.346 45.014 186.346 44.102C186.346 43.178 186.664 42.458 187.3 41.942C187.948 41.426 188.872 41.162 190.072 41.15H192.61V41.042C192.61 40.574 192.448 40.214 192.124 39.962C191.812 39.71 191.356 39.584 190.756 39.584C190.348 39.584 189.886 39.65 189.37 39.782C188.866 39.914 188.356 40.106 187.84 40.358L186.958 38.198C187.75 37.838 188.506 37.574 189.226 37.406C189.958 37.226 190.714 37.136 191.494 37.136ZM190.666 44.966C191.146 44.966 191.566 44.852 191.926 44.624C192.286 44.384 192.514 44.078 192.61 43.706V42.86H190.702C189.802 42.86 189.352 43.196 189.352 43.868C189.352 44.204 189.466 44.474 189.694 44.678C189.934 44.87 190.258 44.966 190.666 44.966ZM197.912 37.262H201.098V47H197.912V37.262ZM199.478 32.78C199.97 32.78 200.372 32.942 200.684 33.266C201.008 33.578 201.17 33.986 201.17 34.49C201.17 34.982 201.008 35.39 200.684 35.714C200.372 36.038 199.97 36.2 199.478 36.2C198.986 36.2 198.578 36.038 198.254 35.714C197.942 35.39 197.786 34.982 197.786 34.49C197.786 33.986 197.942 33.578 198.254 33.266C198.578 32.942 198.986 32.78 199.478 32.78ZM209.981 37.136C211.049 37.136 211.901 37.472 212.537 38.144C213.185 38.816 213.509 39.722 213.509 40.862V47H210.323V41.78C210.323 41.228 210.173 40.796 209.873 40.484C209.573 40.16 209.171 39.998 208.667 39.998C208.139 40.01 207.701 40.184 207.353 40.52C207.017 40.856 206.819 41.3 206.759 41.852V47H203.555V37.262H206.759V38.846C207.107 38.282 207.551 37.856 208.091 37.568C208.643 37.28 209.273 37.136 209.981 37.136ZM222.02 46.496C221.66 46.7 221.246 46.862 220.778 46.982C220.31 47.09 219.836 47.144 219.356 47.144C218.396 47.144 217.616 46.868 217.016 46.316C216.428 45.764 216.134 45.002 216.134 44.03V39.854H214.784V37.73H216.134V35.03H219.32V37.73H221.84V39.854H219.32V43.526C219.32 44.21 219.602 44.552 220.166 44.552C220.514 44.552 220.928 44.444 221.408 44.228L222.02 46.496ZM223.541 37.262H226.727V47H223.541V37.262ZM225.107 32.78C225.599 32.78 226.001 32.942 226.313 33.266C226.637 33.578 226.799 33.986 226.799 34.49C226.799 34.982 226.637 35.39 226.313 35.714C226.001 36.038 225.599 36.2 225.107 36.2C224.615 36.2 224.207 36.038 223.883 35.714C223.571 35.39 223.415 34.982 223.415 34.49C223.415 33.986 223.571 33.578 223.883 33.266C224.207 32.942 224.615 32.78 225.107 32.78ZM235.61 37.136C236.678 37.136 237.53 37.472 238.166 38.144C238.814 38.816 239.138 39.722 239.138 40.862V47H235.952V41.78C235.952 41.228 235.802 40.796 235.502 40.484C235.202 40.16 234.8 39.998 234.296 39.998C233.768 40.01 233.33 40.184 232.982 40.52C232.646 40.856 232.448 41.3 232.388 41.852V47H229.184V37.262H232.388V38.846C232.736 38.282 233.18 37.856 233.72 37.568C234.272 37.28 234.902 37.136 235.61 37.136ZM250.637 37.262V46.136C250.637 47.036 250.415 47.822 249.971 48.494C249.527 49.178 248.903 49.7 248.099 50.06C247.307 50.432 246.389 50.618 245.345 50.618C244.529 50.618 243.743 50.504 242.987 50.276C242.231 50.048 241.565 49.742 240.989 49.358L242.105 47.144C242.549 47.444 243.029 47.678 243.545 47.846C244.061 48.014 244.583 48.098 245.111 48.098C245.831 48.098 246.401 47.93 246.821 47.594C247.241 47.258 247.451 46.802 247.451 46.226V45.182C246.803 46.034 245.879 46.46 244.679 46.46C243.875 46.46 243.155 46.268 242.519 45.884C241.895 45.488 241.403 44.936 241.043 44.228C240.695 43.508 240.521 42.686 240.521 41.762C240.521 40.85 240.689 40.046 241.025 39.35C241.373 38.654 241.859 38.114 242.483 37.73C243.107 37.346 243.815 37.154 244.607 37.154C245.207 37.154 245.747 37.268 246.227 37.496C246.719 37.712 247.127 38.03 247.451 38.45V37.262H250.637ZM245.489 44.12C246.077 44.12 246.551 43.91 246.911 43.49C247.271 43.07 247.451 42.524 247.451 41.852C247.451 41.168 247.271 40.616 246.911 40.196C246.551 39.776 246.077 39.566 245.489 39.566C244.901 39.566 244.421 39.782 244.049 40.214C243.689 40.634 243.509 41.18 243.509 41.852C243.509 42.524 243.689 43.07 244.049 43.49C244.421 43.91 244.901 44.12 245.489 44.12ZM256.975 34.382H266.929V37.01H260.269V39.368H266.281V41.978L260.269 41.996V44.372H267.109V47H256.975V34.382ZM268.167 37.262H271.839L273.405 39.998L275.097 37.262H278.607L275.529 42.014L278.823 47H275.133L273.405 44.03L271.479 47H267.951L271.263 42.014L268.167 37.262ZM286.281 37.154C287.181 37.154 287.973 37.364 288.657 37.784C289.341 38.192 289.869 38.78 290.241 39.548C290.625 40.304 290.817 41.18 290.817 42.176C290.817 43.16 290.631 44.024 290.259 44.768C289.899 45.512 289.377 46.088 288.693 46.496C288.021 46.904 287.241 47.108 286.353 47.108C285.741 47.108 285.183 46.994 284.679 46.766C284.187 46.526 283.767 46.184 283.419 45.74V50.492H280.215V37.262H283.419V38.522C284.127 37.61 285.081 37.154 286.281 37.154ZM285.489 44.516C286.113 44.516 286.617 44.294 287.001 43.85C287.397 43.406 287.595 42.824 287.595 42.104C287.595 41.384 287.397 40.802 287.001 40.358C286.617 39.902 286.113 39.674 285.489 39.674C284.877 39.674 284.379 39.902 283.995 40.358C283.611 40.802 283.419 41.384 283.419 42.104C283.419 42.824 283.611 43.406 283.995 43.85C284.379 44.294 284.877 44.516 285.489 44.516ZM296.749 37.154C298.333 37.154 299.551 37.622 300.403 38.558C301.255 39.494 301.681 40.778 301.681 42.41C301.681 42.662 301.675 42.854 301.663 42.986H294.895C295.051 43.538 295.321 43.964 295.705 44.264C296.089 44.552 296.557 44.696 297.109 44.696C297.529 44.696 297.931 44.612 298.315 44.444C298.711 44.276 299.071 44.03 299.395 43.706L301.069 45.38C300.565 45.944 299.953 46.376 299.233 46.676C298.525 46.964 297.721 47.108 296.821 47.108C295.777 47.108 294.865 46.904 294.085 46.496C293.305 46.088 292.705 45.512 292.285 44.768C291.877 44.024 291.673 43.16 291.673 42.176C291.673 41.18 291.883 40.304 292.303 39.548C292.723 38.78 293.317 38.192 294.085 37.784C294.853 37.364 295.741 37.154 296.749 37.154ZM298.567 41.276C298.567 40.712 298.399 40.262 298.063 39.926C297.739 39.578 297.307 39.404 296.767 39.404C296.263 39.404 295.837 39.572 295.489 39.908C295.153 40.244 294.931 40.7 294.823 41.276H298.567ZM306.515 38.882C306.851 38.318 307.283 37.886 307.811 37.586C308.351 37.286 308.963 37.136 309.647 37.136V40.07C309.539 40.058 309.377 40.052 309.161 40.052C308.405 40.052 307.793 40.232 307.325 40.592C306.857 40.94 306.587 41.42 306.515 42.032V47H303.311V37.262H306.515V38.882ZM317.381 46.496C317.021 46.7 316.607 46.862 316.139 46.982C315.671 47.09 315.197 47.144 314.717 47.144C313.757 47.144 312.977 46.868 312.377 46.316C311.789 45.764 311.495 45.002 311.495 44.03V39.854H310.145V37.73H311.495V35.03H314.681V37.73H317.201V39.854H314.681V43.526C314.681 44.21 314.963 44.552 315.527 44.552C315.875 44.552 316.289 44.444 316.769 44.228L317.381 46.496ZM325.401 40.34C324.141 39.68 323.109 39.35 322.305 39.35C322.029 39.35 321.807 39.404 321.639 39.512C321.471 39.608 321.387 39.758 321.387 39.962C321.387 40.178 321.519 40.352 321.783 40.484C322.047 40.616 322.467 40.76 323.043 40.916C323.739 41.12 324.315 41.324 324.771 41.528C325.239 41.72 325.641 42.02 325.977 42.428C326.313 42.824 326.481 43.346 326.481 43.994C326.481 44.978 326.097 45.752 325.329 46.316C324.573 46.868 323.583 47.144 322.359 47.144C321.531 47.144 320.739 47.03 319.983 46.802C319.227 46.562 318.555 46.214 317.967 45.758L318.975 43.688C319.527 44.072 320.103 44.372 320.703 44.588C321.315 44.792 321.891 44.894 322.431 44.894C322.743 44.894 322.989 44.846 323.169 44.75C323.361 44.642 323.457 44.492 323.457 44.3C323.457 44.06 323.319 43.874 323.043 43.742C322.779 43.61 322.359 43.466 321.783 43.31C321.099 43.106 320.535 42.908 320.091 42.716C319.647 42.512 319.257 42.212 318.921 41.816C318.597 41.42 318.435 40.904 318.435 40.268C318.435 39.284 318.807 38.516 319.551 37.964C320.295 37.4 321.255 37.118 322.431 37.118C323.139 37.118 323.835 37.214 324.519 37.406C325.215 37.598 325.869 37.88 326.481 38.252L325.401 40.34Z" fill="#54C07A"/>
</svg>
