<svg width="397" height="80" viewBox="0 0 397 80" fill="none" xmlns="http://www.w3.org/2000/svg">
<rect width="397" height="80" fill="white"/>
<g clip-path="url(#clip0)">
<path d="M127.88 40.7561V45.9366H123V26.7731H133.072C137.706 26.7731 139.988 30.0023 139.988 33.7495C140.001 37.678 137.697 40.7 133.072 40.7561H127.88ZM127.88 36.1886H133.067C134.429 36.1843 135.103 35.0878 135.103 33.8315C135.103 32.5752 134.39 31.4226 133.059 31.4226H127.872L127.88 36.1886Z" fill="#1D1D1B"/>
<path d="M150.803 26.3069C145.158 26.3069 141.211 30.0541 141.211 36.3484C141.177 38.0895 141.532 39.8163 142.249 41.4037L140.416 47.0375L144.739 44.5164C146.494 45.7902 148.622 46.4475 150.79 46.3857C156.462 46.3857 160.382 42.7464 160.382 36.3441C160.382 29.9419 156.475 26.3069 150.803 26.3069ZM150.803 41.7664C148.041 41.7664 146.092 39.5517 146.092 36.3484C146.092 33.1452 148.015 30.9305 150.803 30.9305C153.665 30.9305 155.515 33.0631 155.515 36.3484C155.515 39.5258 153.665 41.7664 150.803 41.7664Z" fill="#1D1D1B"/>
<path d="M234.637 47.0375L232.929 41.8009C233.786 40.1133 234.212 38.2403 234.17 36.3484C234.17 29.9721 230.249 26.3069 224.578 26.3069C218.907 26.3069 214.986 30.0541 214.986 36.3484C214.986 42.7507 218.933 46.39 224.578 46.39C226.684 46.4459 228.752 45.8288 230.483 44.6286L234.637 47.0375ZM219.871 36.3484C219.871 33.1754 221.794 30.9305 224.582 30.9305C227.444 30.9305 229.294 33.0631 229.294 36.3484C229.294 39.5215 227.444 41.7664 224.582 41.7664C221.82 41.7664 219.871 39.5517 219.871 36.3484Z" fill="#1D1D1B"/>
<path d="M267.921 33.1452C270.726 33.1452 273 30.8741 273 28.0726C273 25.2711 270.726 23 267.921 23C265.116 23 262.842 25.2711 262.842 28.0726C262.842 30.8741 265.116 33.1452 267.921 33.1452Z" fill="#3AB9C7"/>
<path d="M270.342 30.1533C270.055 30.438 269.713 30.6614 269.337 30.8098C268.961 30.9583 268.558 31.0287 268.154 31.0168C265.993 31.0168 265.18 29.6698 265.172 28.1934C265.159 27.8031 265.228 27.4143 265.374 27.0523C265.521 26.6902 265.742 26.3628 266.023 26.0912C266.304 25.8195 266.639 25.6096 267.006 25.475C267.373 25.3404 267.764 25.284 268.154 25.3096C268.546 25.3047 268.935 25.3787 269.297 25.527C269.659 25.6753 269.988 25.895 270.264 26.173L269.313 27.1055C269.161 26.9528 268.981 26.832 268.782 26.7504C268.583 26.6689 268.369 26.6281 268.154 26.6306C267.955 26.6288 267.757 26.6685 267.573 26.7471C267.389 26.8257 267.224 26.9415 267.088 27.0872C266.951 27.2328 266.846 27.4052 266.78 27.5934C266.714 27.7816 266.687 27.9815 266.702 28.1804C266.686 28.378 266.712 28.5767 266.779 28.7633C266.845 28.95 266.951 29.1202 267.089 29.2628C267.227 29.4054 267.394 29.517 267.578 29.5901C267.762 29.6633 267.96 29.6964 268.159 29.6871C268.646 29.6774 269.111 29.4793 269.455 29.1345L270.342 30.1533Z" fill="white"/>
<path d="M181.382 26.7731L180.712 28.9014L178.058 36.3441L175.071 26.7731H171.69V26.7817V26.7731L168.535 36.3354L165.379 26.7731H160.054L166.49 45.8978H170.432L173.393 36.7326L176.449 45.8978H180.422L186.707 26.7731H181.382Z" fill="#1D1D1B"/>
<path d="M209.933 26.786L209.263 28.9143L206.609 36.357L203.617 26.786H200.241L200.237 26.7946V26.786L197.081 36.3484L193.926 26.786H188.6L195.037 45.915H198.983L201.94 36.7455L205.001 45.915H208.969L215.258 26.786H209.933Z" fill="#1D1D1B"/>
<path d="M255.16 26.786L254.49 28.9143L251.836 36.3484L248.845 26.786H245.469L245.465 26.7946V26.786L242.314 36.3484L239.158 26.786H233.828L240.265 45.915H244.211L247.168 36.7455L250.228 45.915H254.197L260.486 26.786H255.16Z" fill="#1D1D1B"/>
<path d="M152.826 50.0121C153.176 50.1532 153.493 50.3632 153.76 50.6294L153.224 51.3029C153.026 51.0905 152.788 50.9189 152.524 50.7978C152.269 50.6752 151.99 50.6104 151.707 50.6078C151.363 50.6039 151.025 50.6903 150.725 50.8582C150.506 50.9843 150.314 51.1525 150.159 51.353C150.005 51.5535 149.892 51.7824 149.827 52.0267C149.761 52.2709 149.745 52.5257 149.778 52.7764C149.811 53.027 149.894 53.2686 150.021 53.4873C150.19 53.7771 150.433 54.0169 150.725 54.1824C151.024 54.3526 151.363 54.4405 151.707 54.4371C151.984 54.4344 152.257 54.3757 152.511 54.2644C152.776 54.1521 153.018 53.991 153.224 53.7895L153.769 54.3982C153.485 54.675 153.152 54.8961 152.787 55.0501C152.431 55.2055 152.047 55.2863 151.659 55.2876C151.162 55.2986 150.671 55.1811 150.233 54.9465C149.809 54.712 149.456 54.3674 149.212 53.9493C148.964 53.5238 148.835 53.0389 148.841 52.5462C148.835 52.0584 148.966 51.5787 149.217 51.1604C149.458 50.7387 149.809 50.3898 150.233 50.1502C150.627 49.9357 151.065 49.8116 151.513 49.7869C151.962 49.7623 152.41 49.8377 152.826 50.0078V50.0121Z" fill="#1D1D1B"/>
<path d="M156.894 51.3071C157.156 51.155 157.455 51.0788 157.758 51.0869V51.9503C157.403 51.9138 157.046 52.0158 156.764 52.2352C156.638 52.3426 156.534 52.4745 156.46 52.6228C156.385 52.7712 156.342 52.9331 156.332 53.0987V55.2572H155.42V51.1171H156.315V51.9244C156.444 51.6673 156.645 51.453 156.894 51.3071Z" fill="#1D1D1B"/>
<path d="M162.435 51.6396C162.785 52.0797 162.959 52.6332 162.924 53.1937C162.924 53.2628 162.924 53.3736 162.924 53.5261H159.777C159.831 53.8211 159.983 54.089 160.209 54.286C160.445 54.4713 160.739 54.5689 161.039 54.5622C161.259 54.5633 161.476 54.5207 161.679 54.4371C161.885 54.3594 162.072 54.2387 162.228 54.083L162.703 54.5881C162.494 54.8125 162.239 54.9892 161.956 55.1062C161.65 55.2304 161.322 55.2921 160.992 55.2875C160.605 55.2963 160.222 55.2056 159.881 55.0242C159.567 54.8544 159.309 54.5982 159.137 54.286C158.967 53.9515 158.878 53.5818 158.878 53.2067C158.878 52.8316 158.967 52.4618 159.137 52.1274C159.309 51.8133 159.567 51.5543 159.881 51.3805C160.213 51.1979 160.587 51.1056 160.966 51.1129C161.234 51.0884 161.505 51.1228 161.759 51.2138C162.013 51.3048 162.244 51.4501 162.435 51.6396ZM161.791 52.0713C161.566 51.8745 161.273 51.7724 160.974 51.7864C160.677 51.7757 160.387 51.8774 160.162 52.0713C159.93 52.2798 159.781 52.5649 159.742 52.8743H162.111C162.114 52.7289 162.088 52.5843 162.033 52.4494C161.979 52.3144 161.898 52.1917 161.796 52.0886L161.791 52.0713Z" fill="#1D1D1B"/>
<path d="M167.091 54.7479C166.813 55.0157 166.461 55.1944 166.081 55.2613C165.7 55.3282 165.309 55.2802 164.956 55.1235C164.746 55.0238 164.569 54.8655 164.447 54.6679C164.325 54.4703 164.263 54.2418 164.268 54.0097C164.264 53.8359 164.3 53.6634 164.375 53.5065C164.451 53.3496 164.562 53.2128 164.701 53.1074C165.035 52.8771 165.436 52.7646 165.842 52.788H167.091V52.6628C167.098 52.5484 167.079 52.434 167.035 52.3279C166.992 52.2218 166.925 52.1268 166.84 52.0498C166.63 51.8902 166.369 51.8119 166.105 51.8296C165.665 51.8458 165.239 51.9965 164.886 52.2613L164.497 51.6051C164.769 51.439 165.06 51.3043 165.362 51.2036C165.664 51.1167 165.977 51.0759 166.291 51.0827C166.739 51.0614 167.178 51.2077 167.523 51.4929C167.668 51.6288 167.782 51.7945 167.857 51.9786C167.931 52.1627 167.965 52.3608 167.956 52.5592V55.2703H167.091V54.7479ZM166.715 54.3637C166.815 54.3035 166.9 54.2213 166.964 54.1233C167.028 54.0253 167.068 53.9141 167.082 53.7982V53.4183H165.971C165.748 53.4022 165.524 53.4454 165.323 53.5435C165.253 53.5898 165.197 53.6546 165.161 53.7308C165.125 53.807 165.111 53.8915 165.12 53.9752C165.12 54.059 165.139 54.1416 165.177 54.2165C165.214 54.2914 165.269 54.3566 165.336 54.4069C165.508 54.5273 165.715 54.5866 165.924 54.5753C166.206 54.586 166.484 54.5123 166.724 54.3637H166.715Z" fill="#1D1D1B"/>
<path d="M171.275 55.2919C171.116 55.3031 170.956 55.2791 170.807 55.2215C170.657 55.164 170.523 55.0743 170.412 54.9589C170.302 54.8436 170.218 54.7053 170.167 54.5539C170.116 54.4026 170.099 54.2418 170.117 54.0831V51.9246H169.533V51.2727H170.117V50.1373H171.007V51.2727H172.226V51.9246H171.007V53.9061C170.993 54.0582 171.031 54.2106 171.115 54.3379C171.159 54.3811 171.211 54.4146 171.268 54.4362C171.326 54.4578 171.387 54.467 171.448 54.4631C171.666 54.4496 171.878 54.3892 172.071 54.2861L172.3 54.9682C171.994 55.1671 171.64 55.2791 171.275 55.2919Z" fill="#1D1D1B"/>
<path d="M174.716 49.5458C174.766 49.598 174.804 49.6598 174.83 49.7273C174.855 49.7948 174.866 49.8667 174.863 49.9387C174.866 50.0093 174.854 50.0797 174.829 50.1457C174.803 50.2117 174.765 50.272 174.716 50.3229C174.616 50.4192 174.482 50.473 174.342 50.473C174.203 50.473 174.069 50.4192 173.968 50.3229C173.919 50.272 173.881 50.2117 173.856 50.1457C173.83 50.0797 173.819 50.0093 173.821 49.9387C173.818 49.8667 173.829 49.7948 173.855 49.7273C173.88 49.6598 173.919 49.598 173.968 49.5458C174.068 49.4485 174.203 49.394 174.342 49.394C174.482 49.394 174.616 49.4485 174.716 49.5458ZM173.899 55.253V51.1172H174.79V55.253H173.899Z" fill="#1D1D1B"/>
<path d="M177.833 55.253L176.229 51.1172H177.163L178.33 54.3766L179.467 51.1172H180.361L178.762 55.253H177.833Z" fill="#1D1D1B"/>
<path d="M182.562 49.5458C182.611 49.598 182.65 49.6598 182.675 49.7273C182.7 49.7948 182.712 49.8667 182.709 49.9387C182.711 50.0093 182.699 50.0797 182.674 50.1457C182.649 50.2117 182.611 50.272 182.562 50.3229C182.461 50.4192 182.327 50.473 182.188 50.473C182.048 50.473 181.914 50.4192 181.814 50.3229C181.765 50.272 181.726 50.2117 181.701 50.1457C181.676 50.0797 181.664 50.0093 181.667 49.9387C181.664 49.8667 181.675 49.7948 181.7 49.7273C181.725 49.6598 181.764 49.598 181.814 49.5458C181.914 49.4485 182.048 49.394 182.188 49.394C182.327 49.394 182.462 49.4485 182.562 49.5458ZM181.745 55.253V51.1172H182.652V55.253H181.745Z" fill="#1D1D1B"/>
<path d="M186.054 55.2919C185.894 55.3038 185.734 55.2802 185.584 55.223C185.435 55.1657 185.299 55.0762 185.188 54.9607C185.077 54.8453 184.993 54.7067 184.942 54.555C184.89 54.4033 184.873 54.2422 184.892 54.0831V51.9246H184.308V51.2727H184.892V50.1373H185.782V51.2727H187.001V51.9246H185.782V53.9061C185.767 54.0582 185.805 54.2106 185.89 54.3379C185.933 54.3811 185.986 54.4146 186.043 54.4362C186.1 54.4578 186.162 54.467 186.223 54.4631C186.441 54.4496 186.653 54.3892 186.845 54.2861L187.074 54.9682C186.77 55.1664 186.417 55.2783 186.054 55.2919Z" fill="#1D1D1B"/>
<path d="M189.763 56.5567C189.527 56.7226 189.244 56.8088 188.955 56.8028C188.781 56.8053 188.608 56.776 188.445 56.7165C188.287 56.6509 188.141 56.5605 188.013 56.4488L188.393 55.7581C188.476 55.8226 188.568 55.8749 188.665 55.9135C188.751 55.945 188.842 55.9611 188.933 55.961C189.072 55.9601 189.207 55.9159 189.319 55.8346C189.432 55.7533 189.516 55.639 189.56 55.5077L189.703 55.1968L187.974 51.1215H188.899L190.139 54.2557L191.298 51.1172H192.162L190.299 55.8099C190.198 56.106 190.011 56.3658 189.763 56.5567Z" fill="#1D1D1B"/>
<path d="M198.845 54.7479C198.567 55.0156 198.215 55.1944 197.835 55.2613C197.454 55.3282 197.063 55.2802 196.71 55.1235C196.5 55.0237 196.323 54.8655 196.201 54.6679C196.079 54.4703 196.017 54.2417 196.022 54.0097C196.018 53.8358 196.054 53.6633 196.13 53.5064C196.205 53.3496 196.316 53.2128 196.455 53.1074C196.79 52.8666 197.197 52.7464 197.609 52.7664H198.858V52.6412C198.865 52.5268 198.846 52.4124 198.802 52.3063C198.759 52.2002 198.692 52.1052 198.607 52.0281C198.397 51.8685 198.136 51.7903 197.872 51.808C197.432 51.8242 197.006 51.9749 196.653 52.2397L196.286 51.618C196.558 51.4519 196.848 51.3172 197.151 51.2165C197.452 51.1295 197.766 51.0888 198.08 51.0956C198.524 51.0671 198.963 51.204 199.312 51.4799C199.457 51.6158 199.571 51.7815 199.645 51.9656C199.72 52.1497 199.754 52.3478 199.744 52.5462V55.2573H198.88L198.845 54.7479ZM198.469 54.3637C198.569 54.3035 198.654 54.2213 198.718 54.1233C198.782 54.0253 198.822 53.9141 198.836 53.7981V53.4182H197.717C197.493 53.4022 197.27 53.4454 197.068 53.5434C196.998 53.5898 196.942 53.6546 196.906 53.7308C196.87 53.8069 196.856 53.8915 196.865 53.9751C196.865 54.059 196.884 54.1417 196.922 54.2167C196.959 54.2917 197.014 54.3568 197.081 54.4068C197.253 54.5276 197.46 54.5869 197.669 54.5752C197.951 54.5859 198.23 54.5123 198.469 54.3637Z" fill="#1D1D1B"/>
<path d="M203.025 55.2919C202.866 55.3031 202.706 55.2791 202.556 55.2215C202.407 55.164 202.273 55.0743 202.162 54.9589C202.051 54.8436 201.968 54.7053 201.917 54.5539C201.866 54.4026 201.848 54.2418 201.867 54.0831V51.9246H201.283V51.2727H201.867V50.1373H202.757V51.2727H203.976V51.9246H202.753V53.9061C202.738 54.0582 202.776 54.2108 202.861 54.3379C202.904 54.3811 202.956 54.4146 203.014 54.4362C203.071 54.4578 203.133 54.467 203.194 54.4631C203.412 54.4496 203.624 54.3892 203.816 54.2861L204.045 54.9682C203.741 55.1664 203.388 55.2783 203.025 55.2919Z" fill="#1D1D1B"/>
<path d="M212.319 55.253L211.268 52.1921L210.218 55.253H209.297L207.776 51.1172H208.696L209.768 54.368L210.814 51.1172H211.74L212.79 54.368L213.845 51.1172H214.757L213.248 55.253H212.319Z" fill="#1D1D1B"/>
<path d="M218.889 51.3546C219.207 51.5241 219.471 51.78 219.65 52.0929C219.829 52.4301 219.922 52.8058 219.922 53.1872C219.922 53.5687 219.829 53.9444 219.65 54.2816C219.473 54.597 219.209 54.8548 218.889 55.0242C218.54 55.1976 218.155 55.2878 217.765 55.2878C217.375 55.2878 216.991 55.1976 216.641 55.0242C216.321 54.855 216.057 54.5971 215.881 54.2816C215.702 53.9444 215.609 53.5687 215.609 53.1872C215.609 52.8058 215.702 52.4301 215.881 52.0929C216.059 51.7799 216.323 51.5239 216.641 51.3546C216.99 51.1803 217.375 51.0895 217.765 51.0895C218.155 51.0895 218.54 51.1803 218.889 51.3546ZM216.853 52.2181C216.734 52.3474 216.641 52.499 216.58 52.6642C216.519 52.8293 216.491 53.0049 216.499 53.1808C216.484 53.5386 216.611 53.8878 216.853 54.1521C216.97 54.2754 217.112 54.3726 217.269 54.4373C217.426 54.502 217.595 54.5328 217.765 54.5277C217.935 54.5331 218.103 54.5023 218.26 54.4376C218.416 54.3728 218.557 54.2755 218.673 54.1521C218.913 53.8866 219.038 53.5379 219.023 53.1808C219.03 53.0049 219.003 52.8293 218.942 52.6642C218.881 52.499 218.788 52.3474 218.669 52.2181C218.426 51.9795 218.099 51.8457 217.759 51.8457C217.418 51.8457 217.091 51.9795 216.849 52.2181H216.853Z" fill="#1D1D1B"/>
<path d="M223.108 51.3071C223.37 51.155 223.67 51.0788 223.973 51.0869V51.9503C223.617 51.9138 223.261 52.0158 222.978 52.2352C222.852 52.3426 222.748 52.4745 222.674 52.6228C222.6 52.7712 222.556 52.9331 222.546 53.0987V55.2572H221.651V51.1171H222.546V51.9244C222.671 51.6696 222.866 51.4555 223.108 51.3071Z" fill="#1D1D1B"/>
<path d="M226.411 54.0831V55.24H225.516V49.4854H226.411V52.9692L228.239 51.1172H229.264L227.733 52.7188L229.38 55.253H228.326L227.111 53.3578L226.411 54.0831Z" fill="#1D1D1B"/>
</g>
<defs>
<clipPath id="clip0">
<rect x="123" y="23" width="150" height="33.8028" fill="white"/>
</clipPath>
</defs>
</svg>
