<svg width="70" height="70" viewBox="0 0 70 70" fill="none" xmlns="http://www.w3.org/2000/svg">
<g clip-path="url(#clip0)">
<path d="M35 1.45825C15.6625 1.45825 0 16.8583 0 35.8516C0 51.0503 10.0275 63.9391 23.9312 68.4833C25.6812 68.807 26.3229 67.7424 26.3229 66.8295C26.3229 66.0128 26.2938 63.8487 26.2792 60.9816C16.5433 63.0553 14.49 56.3674 14.49 56.3674C12.8975 52.3978 10.5962 51.3362 10.5962 51.3362C7.42583 49.2041 10.8413 49.2478 10.8413 49.2478C14.3558 49.487 16.2021 52.7916 16.2021 52.7916C19.3229 58.0503 24.395 56.5308 26.3958 55.6528C26.7108 53.4274 27.6121 51.9137 28.6125 51.0533C20.8396 50.1928 12.67 47.2353 12.67 34.0578C12.67 30.3041 14.0263 27.2358 16.2721 24.8295C15.8783 23.9603 14.6971 20.4633 16.5783 15.7266C16.5783 15.7266 19.5096 14.8049 26.2033 19.2528C29.0033 18.4887 31.9783 18.1095 34.9533 18.092C37.9283 18.1095 40.9033 18.4887 43.7033 19.2528C50.3533 14.8049 53.2846 15.7266 53.2846 15.7266C55.1658 20.4633 53.9846 23.9603 53.6346 24.8295C55.8658 27.2358 57.2221 30.3041 57.2221 34.0578C57.2221 47.2703 49.0408 50.1783 41.2533 51.0241C42.4783 52.0566 43.6158 54.1653 43.6158 57.3883C43.6158 61.9908 43.5721 65.6891 43.5721 66.8062C43.5721 67.7074 44.1846 68.7837 45.9783 68.4395C59.9813 63.9245 70 51.027 70 35.8516C70 16.8583 54.3288 1.45825 35 1.45825Z" fill="white"/>
</g>
<defs>
<clipPath id="clip0">
<rect width="70" height="70" fill="white"/>
</clipPath>
</defs>
</svg>
