<svg width="71" height="71" viewBox="0 0 71 71" fill="none" xmlns="http://www.w3.org/2000/svg">
<path fill-rule="evenodd" clip-rule="evenodd" d="M47.0216 4.97918C40.3827 -1.65973 29.6189 -1.65972 22.98 4.97919L4.97918 22.98C-1.65973 29.6189 -1.65972 40.3827 4.97919 47.0216L22.98 65.0224C29.6189 71.6613 40.3827 71.6613 47.0216 65.0224L65.0224 47.0216C71.6613 40.3827 71.6613 29.6189 65.0224 22.98L47.0216 4.97918ZM35.0008 47.0129C41.6349 47.0129 47.0129 41.6349 47.0129 35.0008C47.0129 28.3667 41.6349 22.9887 35.0008 22.9887C28.3667 22.9887 22.9887 28.3667 22.9887 35.0008C22.9887 41.6349 28.3667 47.0129 35.0008 47.0129Z" fill="white"/>
</svg>
