<svg width="70" height="70" viewBox="0 0 70 70" fill="none" xmlns="http://www.w3.org/2000/svg">
<g clip-path="url(#clip0)">
<path d="M4.37501 4.76279C-1.12582 10.4765 1.15186e-05 16.5461 1.15186e-05 34.9853C1.15186e-05 50.2978 -2.67166 65.6482 11.3108 69.262C15.6771 70.3849 54.3638 70.3849 58.7242 69.2561C64.5458 67.754 69.2825 63.032 69.93 54.7982C70.0204 53.649 70.0204 16.342 69.9271 15.1695C69.2388 6.39904 63.84 1.34445 56.7263 0.320704C55.0958 0.0844542 54.7692 0.0144542 46.4042 -0.000129163C16.7329 0.0144542 10.2288 -1.3068 4.37501 4.76279Z" fill="url(#paint0_linear)"/>
<path d="M34.9942 9.15531C24.4038 9.15531 14.3471 8.21323 10.5059 18.0716C8.91919 22.1432 9.14961 27.4312 9.14961 35.0028C9.14961 41.647 8.93669 47.8916 10.5059 51.9312C14.3384 61.7953 24.4767 60.8503 34.9884 60.8503C45.1296 60.8503 55.5859 61.9062 59.4738 51.9312C61.0634 47.8187 60.83 42.6095 60.83 35.0028C60.83 24.9053 61.3871 18.3866 56.49 13.4924C51.5317 8.53406 44.8263 9.15531 34.9825 9.15531H34.9942ZM32.6784 13.8132C54.7692 13.7782 57.5809 11.3224 56.0292 45.4387C55.4779 57.5049 46.2904 56.1807 34.9971 56.1807C14.4054 56.1807 13.8134 55.5916 13.8134 34.9911C13.8134 14.1516 15.4467 13.8249 32.6784 13.8074V13.8132ZM48.79 18.1036C47.0779 18.1036 45.6896 19.492 45.6896 21.2041C45.6896 22.9161 47.0779 24.3045 48.79 24.3045C50.5021 24.3045 51.8904 22.9161 51.8904 21.2041C51.8904 19.492 50.5021 18.1036 48.79 18.1036ZM34.9942 21.7291C27.6646 21.7291 21.7234 27.6732 21.7234 35.0028C21.7234 42.3324 27.6646 48.2737 34.9942 48.2737C42.3238 48.2737 48.2621 42.3324 48.2621 35.0028C48.2621 27.6732 42.3238 21.7291 34.9942 21.7291ZM34.9942 26.387C46.3838 26.387 46.3984 43.6186 34.9942 43.6186C23.6075 43.6186 23.59 26.387 34.9942 26.387Z" fill="white"/>
</g>
<defs>
<linearGradient id="paint0_linear" x1="4.50924" y1="65.5289" x2="69.5668" y2="9.2223" gradientUnits="userSpaceOnUse">
<stop stop-color="white"/>
<stop offset="0.5" stop-color="#BCBCBC"/>
<stop offset="1" stop-color="white"/>
</linearGradient>
<clipPath id="clip0">
<rect width="70" height="70" fill="white"/>
</clipPath>
</defs>
</svg>
