<svg id="Layer_1" data-name="Layer 1" xmlns="http://www.w3.org/2000/svg" viewBox="0 0 964 1015.26"><defs><style>.cls-1{fill:#232e2f;}</style></defs><title>logo 2018</title><polygon class="cls-1" points="530.82 19 542.65 19 548 198 502 191.49 502 101.61 511.67 37.34 530.82 19"/><path class="cls-1" d="M522.87,589.62q-.72,33.32-1.56,63.6c-15,.2-47.56,1.52-54,2.57-8.46,1.37-45.85,7.64-49.19,10.63S403.8,678,402.35,682.28s-31,70.53-28.87,74.05c1.4,2.35.7,4.2-2.12,5.54H365.5c-3.14,0-4.62,3.35-5.65,5.42S357,781.73,357,783.06s-24.19,9.14-27.07,12.32-12.07,33.7-12.77,35.73-6.3.85-7.9,2-39.87,56.36-41.45,64.41-26.94,51.74-26.94,57.35-5.32,10.8-5.32,14c0,2.19-30.44,29.19-37.65,46.34-13.2-.11-21.84-.17-23.9-.09-13.53.52-59.6-6.77-51.2-7.27s54.18-22.18,59.14-28.08,31.47-24.14,26.34-23.74-64,25.2-64,23.74S92.26,1006,94,997.4s44.88-84.72,50.25-90.78,69.08-34.82,64-32.68-28,0-38.28,4.51-65.17,27.34-66.15,21.37,45.06-65.51,57.71-78.46,39.1-17.84,51.85-17.42,26.2-13.2,26.2-16.89,4.53-82.95,8.92-83.85c.93-.2,1.47-5,1.69-12.5q13.77-4.94,44.3-19,0-7.73,5.18-7.55c5.19.17,33-24.13,37.14-26.22s8.56-22.38,13-23.51,11.27-9.68,16.12-9.68-5.29-15.91,0-16,11.54-23.28,16.14-24,13.7-55.83,9.7-30.83q-4,25,29,43.88v26.9Zm4.66-374Q486,198.52,479.84,198.07t-20.56,36.72V246q-8.68-3-14.09,0t5.41,38.82L470,296.3q-8,19.2-10.7,18.8c-2.7-.41-55.52,33.43-77.18,32.53s-40.47,23.66-45.3,27.11-4.1,25.38-9,27.72-20.94,27.81-28.15,31.36q-7.2,3.56,7.21,40.39,7.9,11.44,0,14.91c-7.9,3.48-7.21,44.8-7.21,54.8s0,16.78-11.58,15.54-17.53,18.34-25,18.34-9.18,21.56-15.87,22.08a9.1,9.1,0,0,0-2.53.67c-.2-.33-.39-.48-.59-.42q-4.38,1.36-74.14-12.75-20.52-10.44,0-8.07c20.53,2.37,69.61-32.6,74.14-37.46s-4.53-57,4.39-66.43,35-37.3,30.32-37.3-35.55.85-39.24,0-29.87,28.53-26.2,14.27q3.67-14.26,35.12-60.08Q296,371.8,292,372.9c-4,1.1-43.06-41.69-38.27-36.36s29.79.77,42.27.38q12.48-.37,25.17-9.59l-6.39-7.24Q297.4,315.5,292,313.92c-5.4-1.59-13.2-1.75-31.88-5.75s88.61-20.25,84.27-20.84-30.4-16.95-29.61-21.08q.78-4.11-18.78-49.74,26,21.5,32,22.3c6,.81,37.17-8.38,32.93-10.09q-4.24-1.71-23.49-53.91l46.19,33.24q37.06,5.52,14.13-2.08c-22.93-7.6-67-40.3-60.32-45.55s66.8,0,66.53-13.82Q403.7,132.77,431.06,57q6.82,44.34,8.34,36.06t30.43-55.83q0,41.07-.79,33.66T537,3q-9.4,26-16.09,34.27T527.53,215.66Z" transform="translate(0)"/><path class="cls-1" d="M807.93,690.53c.28,5.72.78,9.28,1.58,9.45,4.39.9,8.92,80.14,8.92,83.83s13.45,17.31,26.2,16.88,39.2,4.46,51.85,17.41,58.7,72.47,57.71,78.44S898.3,879.69,888,875.18s-33.15-2.37-38.28-4.51,58.58,26.61,64,32.67,48.46,82.17,50.25,90.75-50.25-19-50.25-17.57-58.82-23.33-64-23.73,21.38,17.83,26.34,23.73,50.74,27.57,59.14,28.07-37.67,7.78-51.2,7.27c-2-.08-8.58.38-18.3,1.18-8.5-17.16-36.77-42.31-36.77-44.42,0-3.22-5.32-8.42-5.32-14s-25.36-49.29-26.94-57.33-39.83-63.19-41.44-64.38-7.21,0-7.91-2-9.89-32.53-12.77-35.71-27-11-27.07-12.32-1.86-13.68-2.89-15.76-2.51-5.42-5.64-5.42h-5.87c-2.82-1.35-3.52-3.19-2.11-5.54,2.11-3.52-27.42-69.74-28.88-74s-12.41-12.87-15.75-15.86S605.65,657,597.2,655.59c-7.73-1.25-52.67-2.9-60.43-2.54q-.84-30.27-1.58-63.6l102,15.06V577.63q33-18.9,29-43.88c-4-25,5.09,30.13,9.7,30.82s10.85,23.9,16.14,24-4.86,16,0,16,11.64,8.56,16.12,9.68,8.88,21.42,13,23.51,31.95,26.38,37.14,26.2q5.17-.18,5.18,7.55Q794.18,685.61,807.93,690.53Zm4.52-90.47a7.06,7.06,0,0,0-1.67-.37c-6.69-.52-8.4-22.06-15.87-22.06s-13.4-19.57-25-18.34-11.58-5.54-11.58-15.54.69-51.3-7.21-54.78q-7.9-3.48,0-14.9,14.42-36.82,7.21-40.38c-7.21-3.55-23.26-29-28.15-31.35s-4.15-24.26-9-27.71-23.65-28-45.3-27.1S601.42,314.6,598.72,315q-2.69.4-10.7-18.8l19.38-11.5q10.82-35.83,5.41-38.81t-14.09,0V234.72Q584.46,197.54,578.16,198t-47.74,17.6c0-.72,0-1.44,0-2.16q13.36-171,6.69-179.19T521,0q68.76,60.5,68,67.91t-.79-33.65Q617.08,81.8,618.6,90.08T626.94,54q27.36,75.7,27.09,89.53c-.27,13.82,59.87,8.58,66.53,13.82s-37.39,37.94-60.32,45.54q-22.93,7.59,14.13,2.07l46.19-33.22q-19.24,52.17-23.49,53.89c-4.24,1.71,26.92,10.89,32.93,10.09q6-.81,32-22.29-19.56,45.6-18.78,49.72c.79,4.12-25.27,20.47-29.61,21.07s102.94,16.83,84.27,20.83-26.48,4.17-31.88,5.75q-5.4,1.59-22.78,6.17l-6.39,7.24q12.7,9.19,25.17,9.59c12.48.39,37.47,4.94,42.27-.39S770,370.88,766,369.79q-4-1.1,43.52,19.4Q841,435,844.63,449.25c3.67,14.25-22.52-15.11-26.2-14.26s-34.52,0-39.24,0,21.4,27.87,30.32,37.28-.15,61.56,4.39,66.41S867.51,578.5,888,576.13q20.52-2.39,0,8.07Q818.28,598.3,813.9,597C813.41,596.8,812.93,597.93,812.45,600.06Z" transform="translate(0)"/><path class="cls-1" d="M417.22,624.81q-21.86.81-22.4,3c-.37,1.47-.37,4.13,0,8q-9.35,16.8-8.65,18.77c.68,2-29.54,9.86-31.86,11.9s-32.06,72.42-34,74.83-14,5.88-22.67,5.27-26,1.69-28.93-.6-61.58-28.72-62.05-31.68S192.17,701.08,189.29,699s-23.4-5.26-26.42-4.27-49.43-7-52.23-13.8,8-33.66,8.8-37.9-1.77-12.2-5.28-15.2-7-28.6-3.52-33.51,30.61-32.57,36.5-34.2,37.91-12.5,40-13.43,7.3-4.46,4.74-4.87S131,546.67,128,546.67s15.34-23.57,39.58-27.07,48.94-6.4,53.2-6.31q4.26.11,7.39-.09Q178,492.89,172.83,492.82c-5.21-.06-46.81.13-55.48.07S88.58,474.81,88,469.63s15-47.28,20.59-48.59S45.37,453.35,43,455.61,7.28,506.81,8.79,513.2,7,594.92,7,601.9s4.56,14.06,6.32,22.91S72.68,718.56,88,719.71q15.32,1.14,64.78,1.14,30.85,15.92,32.08,16.51c1.22.61,73.53,57,78.7,56.64s49.09-13.51,54.27-16.72,60-37.35,64.19-39.92,31.54-21.47,42-34.44Q434.54,689.95,417.22,624.81Z" transform="translate(0)"/><path class="cls-1" d="M341.05,708.06q-41.34-5.37-43.15-3.58c-1.81,1.79-33.48,26-35,29.29s-5.19,7-6.91,10.4-49.84,60.71-77.46,66.29-43.62,3-46.23,2.6S60.33,782.94,60.1,780,27.8,756.24,27,753-10.08,652.48,2.73,630.13q12.83-22.35,11-19.88l86.15,113V753q16,23.1,30.29,17.65T189,740.49L258,702.37H283.1q47.2-29.72,50.59-30.81c3.38-1.1,31.67,0,32.81,0s3.2,32.55-1.14,36.5Q361,712,341.05,708.06Z" transform="translate(0)"/><path class="cls-1" d="M528,659.4V583q-42.72,3.59-59,6.64c-37.8,7.1-57.28,16.17-58.33,20.71q-2.26,9.74,3.11,6v8.36c0,6.08-2,29.22,0,34.7A74.92,74.92,0,0,1,416.9,671q35.33-7,54.62-8.64T528,659.4Z" transform="translate(0)"/><path class="cls-1" d="M526,659.4V583q42.72,3.59,59,6.64c37.8,7.1,57.28,16.17,58.33,20.71q2.26,9.74-3.11,6v8.36c0,6.08,2,29.22,0,34.7A74.92,74.92,0,0,0,637.1,671q-35.33-7-54.62-8.64T526,659.4Z" transform="translate(0)"/><polygon class="cls-1" points="530.46 215.6 529.05 216.07 527.52 215.58 523.22 192.88 536.63 194.06 530.46 215.6"/></svg>