<svg xmlns="http://www.w3.org/2000/svg" width="964" height="1015.262" viewBox="0 0 964 1015.262">
  <g id="Group_1" data-name="Group 1" transform="translate(0)">
    <path id="Path_1" data-name="Path 1" d="M530.817,19h11.836L548,198l-46-6.511v-89.88l9.665-64.266Z" fill="#232e2f"/>
    <path id="Path_2" data-name="Path 2" d="M522.873,589.623q-.73,33.312-1.56,63.6c-14.968.19-47.559,1.518-54.026,2.567-8.456,1.372-45.843,7.64-49.183,10.627s-14.306,11.575-15.757,15.863-30.984,70.526-28.872,74.049q2.112,3.523-2.112,5.54H365.5c-3.131,0-4.612,3.346-5.645,5.424s-2.847,14.436-2.887,15.768-24.2,9.132-27.075,12.318-12.07,33.7-12.771,35.729-6.293.845-7.9,2.034-39.866,56.354-41.443,64.4-26.938,51.747-26.938,57.35-5.322,10.8-5.322,14.028c0,2.189-30.439,29.187-37.648,46.338-13.207-.113-21.847-.17-23.9-.092-13.528.516-59.6-6.77-51.205-7.269s54.185-22.18,59.146-28.08,31.472-24.14,26.338-23.74-63.949,25.194-63.949,23.74S92.264,1005.98,94.045,997.4s44.874-84.721,50.246-90.782,69.083-34.818,63.949-32.676-28.015,0-38.277,4.508-65.169,27.34-66.155,21.37,45.067-65.51,57.713-78.464,39.1-17.834,51.853-17.412,26.2-13.2,26.2-16.889S244.1,704.1,248.489,703.2c.932-.192,1.468-5.021,1.692-12.494q13.775-4.935,44.3-19.042,0-7.729,5.184-7.554c5.185.176,32.975-24.124,37.136-26.211s8.561-22.388,13.041-23.513,11.267-9.681,16.123-9.681-5.29-15.912,0-15.982,11.54-23.276,16.143-23.97,13.7-55.826,9.694-30.834q-4,24.992,28.978,43.889v26.9Zm4.655-373.967q-41.511-17.135-47.688-17.59-6.287-.463-20.565,36.722v11.178q-8.679-2.973-14.086,0t5.406,38.821L469.982,296.3q-8.014,19.207-10.707,18.8c-2.692-.4-55.512,33.436-77.171,32.536S341.635,371.29,336.8,374.741s-4.1,25.376-8.988,27.72-20.94,27.811-28.148,31.362q-7.208,3.549,7.208,40.392,7.9,11.43,0,14.907c-7.9,3.477-7.208,44.793-7.208,54.8s0,16.777-11.586,15.543S270.554,577.8,263.086,577.8s-9.181,21.554-15.87,22.071a9.131,9.131,0,0,0-2.529.679c-.193-.335-.388-.483-.583-.422q-4.385,1.354-74.141-12.75-20.53-10.449,0-8.076c20.531,2.374,69.61-32.6,74.141-37.455s-4.531-57.024,4.385-66.434,35.038-37.294,30.319-37.294-35.551.85-39.235,0-29.873,28.526-26.2,14.263q3.674-14.263,35.115-60.079,47.517-20.494,43.522-19.4c-3.994,1.092-43.066-41.694-38.269-36.367s29.785.773,42.264.386q12.479-.386,25.17-9.6l-6.389-7.237q-17.373-4.588-22.776-6.173c-5.4-1.585-13.2-1.745-31.876-5.748s88.6-20.246,84.263-20.843-30.4-16.95-29.611-21.072q.791-4.122-18.781-49.741,25.989,21.489,32,22.3c6.009.807,37.164-8.378,32.922-10.092q-4.242-1.713-23.487-53.9l46.2,33.232q37.065,5.524,14.129-2.077c-22.936-7.6-66.985-40.3-60.324-45.545s66.8,0,66.528-13.827q-.271-13.828,27.094-89.56,6.822,44.352,8.342,36.068t30.43-55.837q0,41.079-.8,33.667T537,3q-9.405,26.026-16.087,34.267Q514.248,45.487,527.528,215.656Z" fill="#232e2f"/>
    <path id="Path_3" data-name="Path 3" d="M807.935,690.53c.27,5.717.778,9.284,1.576,9.449,4.385.9,8.917,80.142,8.917,83.832s13.447,17.3,26.2,16.883,39.207,4.458,51.853,17.408,58.7,72.472,57.712,78.439-55.892-16.855-66.154-21.363-33.142-2.365-38.276-4.507,58.577,26.607,63.948,32.666,48.465,82.175,50.246,90.754-50.246-19.026-50.246-17.572-58.814-23.333-63.948-23.734,21.378,17.836,26.338,23.734,50.744,27.572,59.144,28.071-37.677,7.782-51.2,7.265c-2.025-.077-8.582.386-18.3,1.187-8.505-17.166-36.773-42.309-36.773-44.418,0-3.228-5.323-8.424-5.323-14.024s-25.361-49.287-26.937-57.332-39.834-63.193-41.443-64.381-7.2,0-7.9-2.034-9.89-32.533-12.77-35.717-27.036-10.983-27.075-12.315-1.854-13.685-2.887-15.763-2.514-5.422-5.645-5.422h-5.868q-4.223-2.017-2.111-5.539c2.111-3.522-27.42-69.739-28.872-74.026s-12.419-12.871-15.758-15.858-40.726-9.252-49.182-10.623c-7.72-1.252-52.67-2.9-60.425-2.539q-.837-30.276-1.577-63.6l102.032,15.064V577.626q32.98-18.892,28.977-43.876c-4-24.984,5.09,30.13,9.694,30.824s10.853,23.893,16.143,23.963-4.855,15.978,0,15.978,11.643,8.552,16.123,9.677,8.88,21.418,13.041,23.505,31.95,26.38,37.136,26.2q5.184-.176,5.184,7.552Q794.174,685.614,807.935,690.53Zm4.519-90.472a7.371,7.371,0,0,0-1.67-.368c-6.689-.516-8.4-22.064-15.871-22.064s-13.4-19.569-24.988-18.336-11.586-5.538-11.586-15.539.694-51.3-7.208-54.78q-7.9-3.476,0-14.9,14.415-36.829,7.208-40.379c-7.208-3.549-23.261-29.008-28.148-31.352s-4.15-24.26-8.988-27.711-23.649-28-45.307-27.1S601.417,314.6,598.725,315q-2.692.4-10.706-18.8L607.4,284.7q10.812-35.835,5.407-38.808t-14.086,0V234.716q-14.28-37.173-20.565-36.71-6.18.456-47.742,17.606-.008-1.081-.014-2.165,13.363-170.952,6.683-179.191T521,0q68.763,60.5,67.964,67.913t-.8-33.657q28.91,47.539,30.43,55.82t8.341-36.057q27.367,75.708,27.094,89.532c-.271,13.823,59.867,8.579,66.529,13.823s-37.388,37.934-60.324,45.531q-22.937,7.6,14.129,2.077l46.2-33.223q-19.246,52.176-23.487,53.889c-4.242,1.713,26.913,10.9,32.922,10.089q6.011-.809,32-22.29-19.572,45.6-18.781,49.725c.791,4.121-25.272,20.469-29.61,21.065s102.935,16.836,84.262,20.837-26.474,4.161-31.877,5.746q-5.4,1.586-22.775,6.171l-6.389,7.235q12.691,9.207,25.17,9.593c12.479.387,37.468,4.939,42.264-.385s-34.275,37.446-38.27,36.355q-3.994-1.092,43.523,19.4,31.441,45.8,35.115,60.06c3.674,14.258-22.514-15.109-26.2-14.259s-34.516,0-39.236,0,21.4,27.875,30.319,37.282-.147,61.555,4.385,66.414,53.61,39.816,74.141,37.443q20.531-2.373,0,8.074-69.756,14.1-74.141,12.745C813.411,596.8,812.927,597.927,812.454,600.058Z" fill="#232e2f"/>
    <path id="Path_4" data-name="Path 4" d="M417.224,624.814q-21.854.8-22.407,3t0,7.994q-9.342,16.812-8.652,18.776c.689,1.965-29.531,9.856-31.852,11.9s-32.062,72.419-33.981,74.834-13.963,5.875-22.67,5.27-26,1.687-28.93-.6S207.147,717.261,206.68,714.3s-14.51-13.229-17.387-15.321-23.4-5.265-26.424-4.276-49.425-7.011-52.226-13.8,8.045-33.665,8.8-37.9-1.766-12.206-5.281-15.2-7.03-28.6-3.515-33.516,30.6-32.567,36.5-34.194,37.9-12.5,39.97-13.437,7.3-4.458,4.738-4.863-60.859,4.863-63.815,4.863S143.38,523.1,167.616,519.6s48.945-6.4,53.205-6.3q4.26.09,7.39-.091-50.177-20.317-55.386-20.382c-5.209-.065-46.8.13-55.474.065S88.58,474.807,87.99,469.633s15.015-47.281,20.592-48.6-63.208,32.313-65.6,34.569-35.7,51.2-34.189,57.6S7,594.923,7,601.9s4.556,14.066,6.321,22.916,59.36,93.746,74.669,94.892q15.309,1.148,64.783,1.148,30.856,15.906,32.074,16.51c1.218.606,73.53,57.032,78.708,56.634s49.082-13.51,54.268-16.714,60.042-37.358,64.192-39.92,31.531-21.47,42.025-34.447Q434.533,689.942,417.224,624.814Z" fill="#f30a2e"/>
    <path id="Path_5" data-name="Path 5" d="M341.047,708.057q-41.337-5.371-43.146-3.581c-1.81,1.791-33.481,25.967-35.03,29.292s-5.192,6.962-6.909,10.4-49.847,60.71-77.462,66.289-43.616,2.993-46.233,2.6S60.325,782.944,60.1,779.95s-32.3-23.707-33.083-26.939-37.1-100.534-24.288-122.884q12.811-22.348,11.014-19.882L99.9,723.3v29.708q16.026,23.1,30.29,17.649t58.769-30.166l69.074-38.128H283.1q47.2-29.708,50.584-30.808c3.384-1.1,31.671,0,32.814,0s3.2,32.556-1.143,36.5Q361.013,712,341.047,708.057Z" fill="#f30a2e"/>
    <path id="Path_6" data-name="Path 6" d="M528,659.4V583q-42.721,3.581-59,6.64c-37.8,7.1-57.28,16.173-58.332,20.709q-2.256,9.732,3.11,5.995V624.7c0,6.087-1.975,29.219,0,34.7A74.963,74.963,0,0,1,416.9,671q35.319-7.019,54.618-8.644T528,659.4Z" fill="#f30a2e"/>
    <path id="Path_7" data-name="Path 7" d="M526,659.4V583q42.722,3.581,59,6.64c37.8,7.1,57.28,16.173,58.332,20.709q2.256,9.732-3.11,5.995V624.7c0,6.087,1.975,29.219,0,34.7A74.963,74.963,0,0,0,637.1,671q-35.319-7.019-54.618-8.644T526,659.4Z" fill="#f30a2e"/>
    <path id="Path_8" data-name="Path 8" d="M530.459,215.6l-1.41.463-1.526-.484-4.308-22.7,13.416,1.178Z" fill="#232e2f"/>
  </g>
</svg>
