<svg width="50" height="50" viewBox="0 0 50 50" fill="none" xmlns="http://www.w3.org/2000/svg">
<circle cx="25" cy="25" r="24.5" stroke="#3C4753"/>
<path d="M25 1.5625C18.784 1.5625 12.8226 4.0318 8.42719 8.42718C4.0318 12.8226 1.5625 18.784 1.5625 25C1.5625 31.216 4.0318 37.1774 8.42718 41.5728C12.8226 45.9682 18.784 48.4375 25 48.4375L25 25V1.5625Z" fill="#3C4753"/>
<path d="M25 48.4375C28.0779 48.4375 31.1256 47.8313 33.9691 46.6534C36.8127 45.4756 39.3964 43.7492 41.5728 41.5728C43.7492 39.3964 45.4756 36.8127 46.6534 33.9691C47.8313 31.1256 48.4375 28.0779 48.4375 25C48.4375 21.9221 47.8313 18.8744 46.6534 16.0309C45.4756 13.1873 43.7492 10.6036 41.5728 8.42718C39.3964 6.25081 36.8127 4.52442 33.9691 3.34657C31.1256 2.16873 28.0779 1.5625 25 1.5625L25 25L25 48.4375Z" fill="white"/>
</svg>
