<svg width="70" height="70" viewBox="0 0 70 70" fill="none" xmlns="http://www.w3.org/2000/svg">
<g clip-path="url(#clip0)">
<path d="M70 13.2956C67.3969 14.4375 64.6231 15.1944 61.7312 15.5619C64.7062 13.7856 66.9769 10.9944 68.0444 7.63C65.2706 9.28375 62.2081 10.4519 58.9444 11.1038C56.3106 8.29938 52.5569 6.5625 48.4619 6.5625C40.5169 6.5625 34.1206 13.0113 34.1206 20.9169C34.1206 22.0544 34.2169 23.1481 34.4531 24.1894C22.5225 23.6075 11.9656 17.8894 4.87375 9.17875C3.63562 11.3269 2.90938 13.7856 2.90938 16.4325C2.90938 21.4025 5.46875 25.8081 9.28375 28.3587C6.97813 28.315 4.71625 27.6456 2.8 26.5912C2.8 26.635 2.8 26.6919 2.8 26.7487C2.8 33.7225 7.77437 39.515 14.2975 40.8494C13.1294 41.1688 11.8562 41.3219 10.535 41.3219C9.61625 41.3219 8.68875 41.2694 7.81812 41.0769C9.6775 46.76 14.9538 50.9381 21.2275 51.0737C16.345 54.8931 10.1456 57.1944 3.43438 57.1944C2.2575 57.1944 1.12875 57.1419 0 56.9975C6.35687 61.0969 13.8906 63.4375 22.015 63.4375C48.4225 63.4375 62.86 41.5625 62.86 22.6012C62.86 21.9669 62.8381 21.3544 62.8075 20.7463C65.6556 18.725 68.0488 16.2006 70 13.2956Z" fill="white"/>
</g>
<defs>
<clipPath id="clip0">
<rect width="70" height="70" fill="white"/>
</clipPath>
</defs>
</svg>
