<?xml version="1.0" encoding="iso-8859-1"?>
<!-- Generator: Adobe Illustrator 19.0.0, SVG Export Plug-In . SVG Version: 6.00 Build 0)  -->
<svg version="1.1" id="Capa_1" xmlns="http://www.w3.org/2000/svg" xmlns:xlink="http://www.w3.org/1999/xlink" x="0px" y="0px"
	 viewBox="0 0 508 508" style="enable-background:new 0 0 508 508;" xml:space="preserve">
<g>
	<g>
		<path d="M458.8,147.5H49.2v311.4h409.7V147.5H458.8z M65.5,442.5V163.9h376.9v278.6H65.5z"/>
	</g>
</g>
<g>
	<g>
		<path d="M0,0v98.3v16.4V508h508V114.7V98.3V0H0z M491.6,491.6H16.4V114.7h475.2V491.6z M491.6,98.3H16.4V16.4h475.2V98.3z"/>
	</g>
</g>
<g>
	<g>
		<rect x="41" y="49.2" width="16.4" height="16.4"/>
	</g>
</g>
<g>
	<g>
		<rect x="73.7" y="49.2" width="16.4" height="16.4"/>
	</g>
</g>
<g>
	<g>
		<rect x="106.5" y="49.2" width="16.4" height="16.4"/>
	</g>
</g>
<g>
	<g>
		<rect x="188.5" y="49.2" width="278.6" height="16.4"/>
	</g>
</g>
<g>
	<g>
		<path d="M98.3,196.6v114.7h98.3V196.6H98.3z M180.3,295h-65.5v-82h65.5V295z"/>
	</g>
</g>
<g>
	<g>
		<rect x="237.6" y="196.6" width="172.1" height="16.4"/>
	</g>
</g>
<g>
	<g>
		<rect x="237.6" y="245.8" width="172.1" height="16.4"/>
	</g>
</g>
<g>
	<g>
		<rect x="237.6" y="295" width="172.1" height="16.4"/>
	</g>
</g>
<g>
	<g>
		<rect x="98.3" y="344.1" width="311.4" height="16.4"/>
	</g>
</g>
<g>
	<g>
		<rect x="98.3" y="393.3" width="311.4" height="16.4"/>
	</g>
</g>
<g>
</g>
<g>
</g>
<g>
</g>
<g>
</g>
<g>
</g>
<g>
</g>
<g>
</g>
<g>
</g>
<g>
</g>
<g>
</g>
<g>
</g>
<g>
</g>
<g>
</g>
<g>
</g>
<g>
</g>
</svg>
